<svg width="28" height="28" viewBox="0 0 28 28" fill="none" xmlns="http://www.w3.org/2000/svg">
<g clip-path="url(#clip0_396_2675)">
<path d="M11.8117 27.0346L10.893 27.5869C10.7344 27.6799 10.5266 27.6307 10.4281 27.4721L8.08203 23.54C8.55234 23.6002 9.03906 23.5127 9.48203 23.2611C9.85391 23.0479 10.1492 22.7471 10.3406 22.3916C10.4555 23.2666 10.8328 24.6666 11.932 26.5752C12.025 26.7393 11.9703 26.9416 11.8117 27.0346Z" fill="url(#paint0_linear_396_2675)"/>
<path d="M26.8776 8.61055C28.9612 14.227 28.0643 19.7394 24.8705 20.9207C21.6768 22.1019 17.4002 18.5145 15.3166 12.9035C13.233 7.29258 14.1244 1.77461 17.3182 0.587889C20.5119 -0.59883 24.7885 2.99414 26.8776 8.61055Z" fill="url(#paint1_linear_396_2675)"/>
<path d="M25.193 9.23391C26.9102 13.8605 26.4672 18.2902 24.2032 19.1323C21.9391 19.9745 18.7126 16.9066 16.9954 12.28C15.2782 7.65344 15.7211 3.22375 17.9852 2.38157C20.2493 1.53938 23.4758 4.60735 25.193 9.23391Z" fill="url(#paint2_linear_396_2675)"/>
<path d="M15.3098 12.9036C13.8113 8.86768 13.8551 4.88643 15.184 2.52393C15.1676 2.5458 15.1566 2.56768 15.1402 2.58955C14.1832 3.99502 13.0348 5.28018 11.7715 6.42314C9.80819 8.20596 7.51132 9.55127 5.03398 10.4919C4.36132 10.7435 3.77616 11.0278 3.26757 11.5528C1.69257 13.1497 1.55038 15.7091 2.2996 17.7325C3.04882 19.756 4.82616 21.6044 7.06835 21.7903C7.79569 21.8505 8.4246 21.6864 9.09726 21.4403C11.5855 20.5325 14.2051 20.0513 16.8574 20.1224C18.5582 20.1661 20.2644 20.3849 21.9105 20.8278C21.9379 20.8333 21.9598 20.8388 21.9871 20.8497C19.4387 19.9255 16.8082 16.9396 15.3098 12.9036Z" fill="url(#paint3_linear_396_2675)"/>
<path d="M6.71835 16.0917C5.71757 13.4011 6.10585 10.6776 7.52773 9.37061C6.72382 9.7917 5.8871 10.1636 5.03398 10.4862C4.36132 10.7378 3.77616 11.0222 3.26757 11.5472C1.69257 13.1495 1.55038 15.7089 2.2996 17.7323C3.04882 19.7558 4.82616 21.6042 7.06835 21.7901C7.79569 21.8503 8.4246 21.6862 9.09726 21.4401C9.95585 21.1284 10.8309 20.8659 11.7168 20.6581C9.78632 20.5925 7.71366 18.7823 6.71835 16.0917Z" fill="url(#paint4_linear_396_2675)"/>
<path d="M16.5211 9.96677C16.4555 9.99411 16.3898 10.0215 16.3242 10.0488C16.4883 10.7761 16.7125 11.5254 16.9914 12.2746C17.2703 13.0293 17.5875 13.7402 17.9375 14.3965C18.0031 14.38 18.0742 14.3582 18.1398 14.3308C19.3484 13.8824 19.9609 12.5425 19.5125 11.334C19.075 10.1308 17.7297 9.51833 16.5211 9.96677Z" fill="url(#paint5_linear_396_2675)"/>
<path d="M1.86917 15.5449L1.43714 15.7035C0.868388 15.9168 0.436357 16.3379 0.201201 16.852C-0.0339553 17.366 -0.0722366 17.9676 0.135576 18.5363C0.55667 19.6738 1.82542 20.259 2.96292 19.8324L3.39495 19.6738C2.92464 19.0832 2.55276 18.4215 2.29573 17.7324C2.04964 17.0434 1.89651 16.2941 1.86917 15.5449Z" fill="url(#paint6_linear_396_2675)"/>
<path d="M9.10547 21.4401C8.43281 21.6862 7.80391 21.8503 7.07656 21.7901C6.39297 21.73 5.75313 21.5222 5.16797 21.194C5.67109 21.4729 6.09766 21.8831 6.38203 22.3862L6.39844 22.4136C7.01641 23.5019 8.4 23.8792 9.48828 23.2612C10.057 22.9386 10.4344 22.4026 10.5711 21.812C10.7023 21.2487 11.1234 20.8003 11.6867 20.6636C10.8117 20.8714 9.94766 21.1284 9.10547 21.4401Z" fill="url(#paint7_linear_396_2675)"/>
<path d="M3.38461 17.3279C3.25883 16.9889 3.43383 16.617 3.76742 16.4912L4.93226 16.0592C5.27133 15.9334 5.6432 16.1084 5.76898 16.442C5.89476 16.781 5.71976 17.1529 5.38617 17.2787L4.22133 17.7107C3.88773 17.8365 3.51039 17.667 3.38461 17.3279Z" fill="url(#paint8_linear_396_2675)"/>
<path d="M2.94125 13.9756C2.81547 13.6366 2.99047 13.2647 3.32406 13.1389L4.4889 12.7069C4.82797 12.5811 5.19984 12.7561 5.32562 13.0897C5.4514 13.4287 5.2764 13.8006 4.94281 13.9264L3.77797 14.3584C3.4389 14.4842 3.06703 14.3092 2.94125 13.9756Z" fill="url(#paint9_linear_396_2675)"/>
<path d="M5.23812 20.1607C5.11234 19.8216 5.28734 19.4497 5.62093 19.324L6.78578 18.8919C7.12484 18.7661 7.49672 18.9411 7.6225 19.2747C7.74828 19.6138 7.57328 19.9857 7.23968 20.1115L6.07484 20.5435C5.73578 20.6747 5.3639 20.4997 5.23812 20.1607Z" fill="url(#paint10_linear_396_2675)"/>
</g>
<defs>
<linearGradient id="paint0_linear_396_2675" x1="9.379" y1="23.3046" x2="11.2965" y2="27.1955" gradientUnits="userSpaceOnUse">
<stop stop-color="#4D526E"/>
<stop offset="0.2727" stop-color="#434862"/>
<stop offset="0.7668" stop-color="#292D42"/>
<stop offset="1" stop-color="#1B1E30"/>
</linearGradient>
<linearGradient id="paint1_linear_396_2675" x1="16.6799" y1="1.45534" x2="26.4399" y2="22.0225" gradientUnits="userSpaceOnUse">
<stop stop-color="#4D526E"/>
<stop offset="0.2727" stop-color="#434862"/>
<stop offset="0.7668" stop-color="#292D42"/>
<stop offset="1" stop-color="#1B1E30"/>
</linearGradient>
<linearGradient id="paint2_linear_396_2675" x1="16.3485" y1="12.353" x2="24.8099" y2="9.50461" gradientUnits="userSpaceOnUse">
<stop offset="1.33025e-06" stop-color="#FF941F"/>
<stop offset="0.2962" stop-color="#FFAD2D"/>
<stop offset="0.7497" stop-color="#FFCD3E"/>
<stop offset="1" stop-color="#FFD945"/>
</linearGradient>
<linearGradient id="paint3_linear_396_2675" x1="8.73621" y1="8.72423" x2="12.3805" y2="20.034" gradientUnits="userSpaceOnUse">
<stop stop-color="#FFD945"/>
<stop offset="0.2503" stop-color="#FFCD3E"/>
<stop offset="0.7038" stop-color="#FFAD2D"/>
<stop offset="1" stop-color="#FF941F"/>
</linearGradient>
<linearGradient id="paint4_linear_396_2675" x1="3.89117" y1="11.1841" x2="8.45698" y2="21.7818" gradientUnits="userSpaceOnUse">
<stop stop-color="#FF5C5C"/>
<stop offset="0.1773" stop-color="#FC5659"/>
<stop offset="0.4166" stop-color="#F3454F"/>
<stop offset="0.6911" stop-color="#E4293F"/>
<stop offset="0.9899" stop-color="#CF0129"/>
<stop offset="1" stop-color="#CE0028"/>
</linearGradient>
<linearGradient id="paint5_linear_396_2675" x1="16.634" y1="10.1173" x2="19.231" y2="13.4126" gradientUnits="userSpaceOnUse">
<stop stop-color="#FF5C5C"/>
<stop offset="0.1773" stop-color="#FC5659"/>
<stop offset="0.4166" stop-color="#F3454F"/>
<stop offset="0.6911" stop-color="#E4293F"/>
<stop offset="0.9899" stop-color="#CF0129"/>
<stop offset="1" stop-color="#CE0028"/>
</linearGradient>
<linearGradient id="paint6_linear_396_2675" x1="0.548467" y1="15.9942" x2="2.41019" y2="20.2948" gradientUnits="userSpaceOnUse">
<stop stop-color="#4D526E"/>
<stop offset="0.2727" stop-color="#434862"/>
<stop offset="0.7668" stop-color="#292D42"/>
<stop offset="1" stop-color="#1B1E30"/>
</linearGradient>
<linearGradient id="paint7_linear_396_2675" x1="8.62799" y1="21.4443" x2="9.31684" y2="23.1943" gradientUnits="userSpaceOnUse">
<stop stop-color="#FFD945"/>
<stop offset="0.2503" stop-color="#FFCD3E"/>
<stop offset="0.7038" stop-color="#FFAD2D"/>
<stop offset="1" stop-color="#FF941F"/>
</linearGradient>
<linearGradient id="paint8_linear_396_2675" x1="4.35001" y1="16.2744" x2="4.76891" y2="17.3914" gradientUnits="userSpaceOnUse">
<stop stop-color="#FFD945"/>
<stop offset="0.2503" stop-color="#FFCD3E"/>
<stop offset="0.7038" stop-color="#FFAD2D"/>
<stop offset="1" stop-color="#FF941F"/>
</linearGradient>
<linearGradient id="paint9_linear_396_2675" x1="3.96002" y1="12.9793" x2="4.35098" y2="14.222" gradientUnits="userSpaceOnUse">
<stop stop-color="#FFD945"/>
<stop offset="0.2503" stop-color="#FFCD3E"/>
<stop offset="0.7038" stop-color="#FFAD2D"/>
<stop offset="1" stop-color="#FF941F"/>
</linearGradient>
<linearGradient id="paint10_linear_396_2675" x1="6.19608" y1="19.1032" x2="6.64288" y2="20.2761" gradientUnits="userSpaceOnUse">
<stop stop-color="#FFD945"/>
<stop offset="0.2503" stop-color="#FFCD3E"/>
<stop offset="0.7038" stop-color="#FFAD2D"/>
<stop offset="1" stop-color="#FF941F"/>
</linearGradient>
<clipPath id="clip0_396_2675">
<rect width="28" height="28" fill="white"/>
</clipPath>
</defs>
</svg>
