<?xml version="1.0" encoding="UTF-8"?>
<svg version="1.1" xmlns="http://www.w3.org/2000/svg" width="300" height="300">
<path d="M0 0 C1.19302734 0.88751953 1.19302734 0.88751953 2.41015625 1.79296875 C29.01649071 22.24316243 46.16557143 52.26545609 51.54638672 85.3605957 C55.76262337 119.188066 47.91340149 153.95309075 27.203125 181.30859375 C23.02269074 186.4155427 18.55024036 191.22293496 14 196 C13.39414063 196.65871094 12.78828125 197.31742188 12.1640625 197.99609375 C-2.66672995 213.65885748 -24.37973268 224.63013872 -45 230 C-46.0725 230.30035156 -47.145 230.60070312 -48.25 230.91015625 C-80.36038074 238.48003767 -116.16668898 232.26955224 -144.265625 215.40234375 C-150.17341735 211.69540343 -155.6182924 207.42854413 -161 203 C-161.84062988 202.33774414 -161.84062988 202.33774414 -162.69824219 201.66210938 C-164.16923623 200.48634702 -165.5892901 199.24745267 -167 198 C-167 197.34 -167 196.68 -167 196 C-167.66 196 -168.32 196 -169 196 C-169 195.34 -169 194.68 -169 194 C-169.66 194 -170.32 194 -171 194 C-186.59328446 177.54957939 -196.86913654 157.64945623 -203 136 C-203.34160156 134.82179687 -203.68320313 133.64359375 -204.03515625 132.4296875 C-211.92708126 99.02665606 -204.25277969 64.01603857 -187 35 C-181.59790112 26.51098747 -174.91269332 19.25728378 -168 12 C-167.39414063 11.34128906 -166.78828125 10.68257812 -166.1640625 10.00390625 C-123.81120561 -34.72484261 -47.60592227 -36.20619046 0 0 Z " fill="#E30513" transform="translate(227,46)"/>
<path d="M0 0 C0.8559375 -0.020625 1.711875 -0.04125 2.59375 -0.0625 C12.91030754 -0.12502459 21.78094173 3.20086943 29.38671875 10.22265625 C34.31886276 15.39183491 37.08530868 20.47463845 39.25 27.25 C39.745 28.735 39.745 28.735 40.25 30.25 C41.13997761 42.97230284 39.69457091 53.53892733 32.05859375 64.18359375 C24.66544165 72.6306293 14.5220299 76.50670506 3.54296875 77.62890625 C-8.26931156 78.00602334 -18.99408675 75.58794733 -28.5234375 68.37109375 C-35.66329282 61.5694421 -39.63604889 53.1159682 -40.0859375 43.2890625 C-40.10961274 41.48448333 -40.12242181 39.67973263 -40.125 37.875 C-40.14949219 36.98039062 -40.17398438 36.08578125 -40.19921875 35.1640625 C-40.24213335 25.32231328 -36.35806721 17.45051461 -29.75 10.25 C-20.78551841 2.18014081 -11.80165406 0.06983227 0 0 Z " fill="#FEFBFB" transform="translate(211.75,120.75)"/>
<path d="M0 0 C1.05477539 -0.0299707 1.05477539 -0.0299707 2.13085938 -0.06054688 C5.6777656 -0.05722269 7.87913418 0.32827667 10.94140625 2.15234375 C14.6220066 6.11763142 15.31272623 9.84826646 15.32128906 15.15478516 C15.32759338 16.28010651 15.33389771 17.40542786 15.34039307 18.56484985 C15.3363446 19.77321503 15.33229614 20.9815802 15.328125 22.2265625 C15.33003845 23.48076996 15.3319519 24.73497742 15.33392334 26.02719116 C15.33528393 28.68184207 15.33260525 31.33612447 15.32324219 33.99072266 C15.31416174 36.69458821 15.31406932 39.39818557 15.32324219 42.10205078 C15.33568642 46.01863497 15.33407304 49.93496716 15.328125 53.8515625 C15.33217346 55.04778229 15.33622192 56.24400208 15.34039307 57.47647095 C15.27078685 70.10999862 13.94917388 80.43174162 5.5 90.25390625 C0.82507405 94.73778955 -4.81981358 96.6106258 -10.9375 98.4375 C-11.54207031 98.63214844 -12.14664063 98.82679688 -12.76953125 99.02734375 C-23.34269875 101.02767274 -36.9060784 100.40979662 -46.34375 95.078125 C-50.08920925 92.44544712 -53.37646581 89.82790865 -54.9375 85.4375 C-55.84346453 79.51604109 -55.75463542 74.82557386 -52.25 69.8125 C-50.34588668 67.64974834 -49.00646276 66.47370545 -46.4375 65.125 C-42.61504188 65.60280727 -40.72364802 67.88847096 -37.9375 70.4375 C-34.45050116 72.7109618 -31.48191074 72.67639479 -27.375 72.625 C-26.23933594 72.61855469 -25.10367188 72.61210937 -23.93359375 72.60546875 C-20.88574793 72.56615471 -20.88574793 72.56615471 -17.9375 71.4375 C-15.29866323 65.15557949 -15.64142968 58.65225329 -15.62890625 51.93359375 C-15.60375811 49.47721105 -15.57835993 47.02083089 -15.55273438 44.56445312 C-15.52394991 40.71102495 -15.49991569 36.8576408 -15.48120117 33.00415039 C-15.45955423 29.27207456 -15.42012964 25.54049716 -15.37890625 21.80859375 C-15.37879044 20.65846298 -15.37867462 19.50833221 -15.3785553 18.323349 C-15.29610114 11.65906752 -14.93924389 6.71654125 -10.24609375 1.58984375 C-6.89133979 -0.08469503 -3.66589993 -0.03675925 0 0 Z " fill="#FEFBFB" transform="translate(109.9375,98.5625)"/>
<path d="M0 0 C4.15454444 5.72990294 3.44990277 12.29092952 3.43359375 19.0625 C3.4388356 20.32715088 3.44407745 21.59180176 3.44947815 22.89477539 C3.45589245 25.56460881 3.45601456 28.23358453 3.44604492 30.90332031 C3.43454829 34.31303765 3.45478784 37.72172038 3.48396206 41.13130188 C3.50678629 44.40003938 3.49985515 47.66870152 3.49609375 50.9375 C3.51294472 52.76583374 3.51294472 52.76583374 3.53013611 54.63110352 C3.44291177 65.24372538 3.44291177 65.24372538 -1 70 C-4.74263288 72.49508858 -6.90868692 72.33112659 -11.375 72.375 C-12.68210938 72.40335937 -13.98921875 72.43171875 -15.3359375 72.4609375 C-19.54054508 71.93199966 -21.087212 71.01870756 -24 68 C-26.05299692 64.72329791 -26.25710716 62.13473042 -26.2746582 58.30102539 C-26.28419022 57.15626236 -26.29372223 56.01149933 -26.30354309 54.83204651 C-26.30263168 53.59969772 -26.30172028 52.36734894 -26.30078125 51.09765625 C-26.30506638 49.8278038 -26.3093515 48.55795135 -26.31376648 47.24961853 C-26.31951025 44.56381394 -26.32094481 41.8783936 -26.31567383 39.19262695 C-26.30988062 35.75827208 -26.32681058 32.32445677 -26.3500185 28.89019108 C-26.36833033 25.60518362 -26.36456989 22.32020555 -26.36328125 19.03515625 C-26.372491 17.8048317 -26.38170074 16.57450714 -26.39118958 15.30690002 C-26.38496078 14.15898483 -26.37873199 13.01106964 -26.37231445 11.82836914 C-26.37294388 10.82117325 -26.3735733 9.81397736 -26.3742218 8.77626038 C-25.77924454 4.36226901 -23.47123311 0.77698649 -20 -2 C-13.0653333 -4.1337436 -6.22131156 -3.73278693 0 0 Z " fill="#FEFAFA" transform="translate(161,124)"/>
<path d="M0 0 C0.70125 0.61875 1.4025 1.2375 2.125 1.875 C3.053125 2.638125 3.98125 3.40125 4.9375 4.1875 C8.22470295 8.3778961 7.92434821 13.33535122 7.74609375 18.4453125 C6.78565159 23.74888616 4.3410996 26.65768291 0.125 29.875 C-3.79972288 32.22983373 -7.35012654 32.27191872 -11.875 31.875 C-17.55049553 29.83182161 -21.17373721 26.27752559 -23.875 20.875 C-24.38972399 15.23835039 -24.66113214 10.42015628 -22.0625 5.3125 C-21.340625 4.508125 -20.61875 3.70375 -19.875 2.875 C-19.359375 2.276875 -18.84375 1.67875 -18.3125 1.0625 C-13.71529619 -2.73519011 -5.22791525 -2.04570597 0 0 Z " fill="#E30713" transform="translate(219.875,144.125)"/>
<path d="M0 0 C3.08782102 2.38019537 4.60187639 3.69382714 6 7.3125 C6.52581801 12.83358906 6.36572068 16.68463406 3 21.3125 C-1.57857787 24.77330299 -6.20940771 25.92636449 -11.89453125 25.6328125 C-16.32104012 24.95939186 -19.1093015 23.15505264 -22.3125 20.125 C-24.44492135 16.57096442 -25.17899049 13.4059347 -25 9.3125 C-23.79218789 4.7832046 -22.64376652 2.83556029 -19 -0.125 C-13.1187663 -3.00331565 -5.81855487 -3.02022446 0 0 Z " fill="#FEF9F9" transform="translate(159,88.6875)"/>
</svg>
