<svg width="187" height="56" viewBox="0 0 187 56" fill="none" xmlns="http://www.w3.org/2000/svg">
<rect x="0.777344" y="0.104492" width="185.556" height="55.5556" rx="27.7778" fill="black"/>
<path fill-rule="evenodd" clip-rule="evenodd" d="M82.6768 13.8493C82.6768 14.0567 82.7471 14.2345 82.8879 14.3826C83.036 14.5234 83.2138 14.5937 83.4212 14.5937C83.6286 14.5937 83.8064 14.5215 83.9545 14.3771C84.1027 14.2326 84.1768 14.0567 84.1768 13.8493C84.1768 13.6345 84.1027 13.4549 83.9545 13.3104C83.8064 13.166 83.6286 13.0938 83.4212 13.0938C83.2138 13.0938 83.0379 13.1678 82.8934 13.316C82.749 13.4641 82.6768 13.6419 82.6768 13.8493ZM67.7208 21.2163H68.5986V17.3608H64.8319V18.3385H67.5653C67.5504 18.5608 67.4967 18.783 67.4041 19.0052C67.3116 19.2274 67.1745 19.4478 66.993 19.6663C66.8116 19.8848 66.5597 20.0608 66.2375 20.1941C65.9153 20.3274 65.5467 20.3941 65.1319 20.3941C64.3764 20.3941 63.7301 20.1219 63.193 19.5774C62.656 19.033 62.3875 18.2645 62.3875 17.2719C62.3875 16.2867 62.6615 15.5237 63.2097 14.983C63.7579 14.4422 64.4134 14.1719 65.1764 14.1719C65.7838 14.1719 66.3078 14.3293 66.7486 14.6441C67.1893 14.9589 67.4986 15.4015 67.6764 15.9719L68.6653 15.5497C68.4356 14.8311 68.0079 14.2552 67.3819 13.8219C66.756 13.3885 66.0208 13.1719 65.1764 13.1719C64.5097 13.1719 63.8856 13.3237 63.3041 13.6274C62.7227 13.9311 62.2393 14.4015 61.8541 15.0385C61.469 15.6756 61.2764 16.42 61.2764 17.2719C61.2764 18.1237 61.4597 18.8682 61.8264 19.5052C62.193 20.1422 62.6615 20.6145 63.2319 20.9219C63.8023 21.2293 64.4245 21.383 65.0986 21.383C65.7134 21.383 66.2393 21.2571 66.6764 21.0052C67.1134 20.7534 67.4282 20.4534 67.6208 20.1052L67.7208 21.2163ZM73.765 17.9936H70.8428C70.865 17.6232 71.0094 17.3029 71.2761 17.0325C71.5428 16.7621 71.8835 16.627 72.2983 16.627C72.7576 16.627 73.1131 16.7547 73.365 17.0103C73.6168 17.2658 73.7502 17.5936 73.765 17.9936ZM73.9201 19.3827L74.8201 19.6939C74.6645 20.1902 74.3757 20.5957 73.9534 20.9105C73.5312 21.2253 73.0201 21.3827 72.4201 21.3827C71.672 21.3827 71.0368 21.1253 70.5145 20.6105C69.9923 20.0957 69.7312 19.4013 69.7312 18.5272C69.7312 17.7124 69.9831 17.0383 70.4868 16.505C70.9905 15.9716 71.5905 15.705 72.2868 15.705C73.0942 15.705 73.7238 15.9587 74.1757 16.4661C74.6275 16.9735 74.8534 17.6531 74.8534 18.505C74.8534 18.6383 74.846 18.7494 74.8312 18.8383H70.809C70.8164 19.3124 70.9738 19.7013 71.2812 20.005C71.5886 20.3087 71.9682 20.4605 72.4201 20.4605C73.1831 20.4605 73.6831 20.1013 73.9201 19.3827ZM77.5882 15.8715V14.1826H76.6326V15.0493C76.6326 15.2937 76.5641 15.4919 76.427 15.6437C76.29 15.7956 76.0844 15.8715 75.8104 15.8715H75.5215V16.816H76.5437V19.7493C76.5437 20.2308 76.677 20.6048 76.9437 20.8715C77.2104 21.1382 77.5733 21.2715 78.0326 21.2715C78.3289 21.2715 78.5659 21.2382 78.7437 21.1715V20.2826C78.6252 20.3122 78.4882 20.3271 78.3326 20.3271C78.0659 20.3271 77.8752 20.2678 77.7604 20.1493C77.6456 20.0308 77.5882 19.8456 77.5882 19.5937V16.816H78.7437V15.8715H77.5882ZM83.9414 21.2155H82.908V15.8711H83.9414V21.2155ZM87.1212 14.1826V15.8715H88.2768V16.8159H87.1212V19.5937C87.1212 19.8456 87.1786 20.0308 87.2935 20.1493C87.4083 20.2678 87.599 20.3271 87.8657 20.3271C88.0212 20.3271 88.1583 20.3122 88.2768 20.2826V21.1715C88.099 21.2382 87.862 21.2715 87.5657 21.2715C87.1064 21.2715 86.7435 21.1382 86.4768 20.8715C86.2101 20.6048 86.0768 20.2308 86.0768 19.7493V16.8159H85.0546V15.8715H85.3435C85.6175 15.8715 85.8231 15.7956 85.9601 15.6437C86.0972 15.4919 86.1657 15.2937 86.1657 15.0493V14.1826H87.1212ZM94.7311 20.4488C94.2645 20.4488 93.8682 20.2821 93.5422 19.9488C93.2237 19.6081 93.0645 19.1377 93.0645 18.5377C93.0645 17.9451 93.2256 17.4803 93.5478 17.1433C93.87 16.8062 94.2645 16.6377 94.7311 16.6377C95.1978 16.6377 95.5922 16.8062 95.9145 17.1433C96.2367 17.4803 96.3978 17.9451 96.3978 18.5377C96.3978 19.1377 96.2367 19.6062 95.9145 19.9433C95.5922 20.2803 95.1978 20.4488 94.7311 20.4488ZM92.7657 16.5161C93.2842 15.9753 93.9397 15.705 94.7323 15.705C95.5249 15.705 96.1786 15.9735 96.6935 16.5105C97.2083 17.0476 97.4657 17.7235 97.4657 18.5383C97.4657 19.3605 97.2101 20.0402 96.699 20.5772C96.1879 21.1142 95.5323 21.3827 94.7323 21.3827C93.9323 21.3827 93.2768 21.1142 92.7657 20.5772C92.2546 20.0402 91.999 19.3605 91.999 18.5383C91.999 17.7235 92.2546 17.0494 92.7657 16.5161ZM99.8425 21.2158V18.1269C99.8425 17.7047 99.9518 17.3547 100.17 17.0769C100.389 16.7992 100.694 16.6603 101.087 16.6603C101.917 16.6603 102.331 17.1084 102.331 18.0047V21.2158H103.376V17.8269C103.376 17.2047 103.211 16.6973 102.881 16.3047C102.552 15.9121 102.08 15.7158 101.465 15.7158C100.724 15.7158 100.176 16.0232 99.8203 16.638V15.8714H98.7981V21.2158H99.8425Z" fill="white"/>
<path fill-rule="evenodd" clip-rule="evenodd" d="M73.4711 33.7223V40.1045H71.7466L71.5866 38.5045C71.0355 39.429 69.7377 40.3712 67.7289 40.3712C64.44 40.3712 61.5244 37.9534 61.5244 33.7934C61.5244 29.6512 64.6 27.2334 67.8711 27.2334C70.9289 27.2334 72.8844 28.9934 73.56 31.0734L71.5511 31.8378C71.1244 30.4156 69.88 29.2067 67.8711 29.2067C65.8266 29.2067 63.6933 30.6645 63.6933 33.7934C63.6933 36.869 65.6844 38.4156 67.8533 38.4156C70.3955 38.4156 71.3555 36.6734 71.4622 35.589H67.3022V33.7223H73.4711ZM77.2577 35.7667C77.2577 37.5623 78.4133 38.5223 79.6755 38.5223C80.9555 38.5223 82.0933 37.5801 82.0933 35.7667C82.0933 33.9712 80.9555 33.0467 79.6755 33.0467C78.4133 33.0467 77.2577 33.9712 77.2577 35.7667ZM79.6763 31.1798C77.0985 31.1798 75.1963 33.1176 75.1963 35.7665C75.1963 38.4331 77.0985 40.3709 79.6763 40.3709C82.2719 40.3709 84.1741 38.4331 84.1741 35.7665C84.1741 33.1176 82.2719 31.1798 79.6763 31.1798ZM87.5508 35.7669C87.5508 37.5624 88.7063 38.5224 89.9686 38.5224C91.2486 38.5224 92.3863 37.5802 92.3863 35.7669C92.3863 33.9713 91.2486 33.0469 89.9686 33.0469C88.7063 33.0469 87.5508 33.9713 87.5508 35.7669ZM89.9693 31.1798C87.3915 31.1798 85.4893 33.1176 85.4893 35.7665C85.4893 38.4331 87.3915 40.3709 89.9693 40.3709C92.5648 40.3709 94.4671 38.4331 94.4671 35.7665C94.4671 33.1176 92.5648 31.1798 89.9693 31.1798ZM99.9614 43.7493C97.668 43.7493 96.068 42.3271 95.8369 40.5849L97.7391 40.0871C97.8814 41.1538 98.7169 41.9538 99.908 41.9538C101.544 41.9538 102.361 41.1182 102.361 39.3582V38.4516C101.988 39.1271 101.117 39.7138 99.8547 39.7138C97.5436 39.7138 95.8547 37.936 95.8547 35.5004C95.8547 33.1893 97.4725 31.2871 99.8547 31.2871C101.206 31.2871 102.041 31.8382 102.415 32.5493V31.4471H104.406V39.2871C104.406 41.5982 103.215 43.7493 99.9614 43.7493ZM100.191 37.9535C98.8395 37.9535 97.9329 37.0112 97.9329 35.5001C97.9329 34.0246 98.8751 33.0646 100.191 33.0646C101.471 33.0646 102.413 34.0246 102.413 35.5001C102.413 36.9935 101.506 37.9535 100.191 37.9535ZM108.99 27.2334V40.1045H106.928V27.2334H108.99ZM113.098 34.8245C113.169 33.9001 113.916 32.9045 115.213 32.9045C116.636 32.9045 117.311 33.8112 117.347 34.8245H113.098ZM115.408 38.593C116.653 38.593 117.293 37.9352 117.577 37.0819L119.319 37.633C118.857 39.1441 117.488 40.3708 115.408 40.3708C113.061 40.3708 110.981 38.6641 110.981 35.7308C110.981 32.993 113.008 31.1797 115.195 31.1797C117.861 31.1797 119.426 32.9397 119.426 35.6775C119.426 36.0152 119.39 36.2997 119.373 36.3352H113.044C113.097 37.6508 114.128 38.593 115.408 38.593ZM128.119 33.2959V29.3848H130.341C131.692 29.3848 132.51 30.1492 132.51 31.3581C132.51 32.5492 131.692 33.2959 130.341 33.2959H128.119ZM134.68 31.34C134.68 33.5622 133.08 35.18 130.662 35.18H128.12V40.1044H125.986V27.5H130.662C133.08 27.5 134.68 29.1356 134.68 31.34ZM138.574 40.1045V27.2334H136.512V40.1045H138.574ZM143.64 40.3709C141.826 40.3709 140.706 39.1265 140.706 37.7576C140.706 36.2109 141.844 35.3576 143.32 35.1442L145.542 34.8065C146.04 34.7354 146.182 34.4865 146.182 34.1842C146.182 33.4554 145.684 32.8687 144.546 32.8687C143.462 32.8687 142.857 33.562 142.769 34.4331L140.884 34.0065C141.044 32.5131 142.395 31.1798 144.529 31.1798C147.195 31.1798 148.209 32.6909 148.209 34.4154L148.21 38.9075C148.218 39.3372 148.252 39.6716 148.28 39.8791L148.315 40.1042H146.395C146.377 40.0509 146.306 39.6954 146.306 39.002C145.897 39.6598 145.044 40.3709 143.64 40.3709ZM144.03 38.7532C143.212 38.7532 142.768 38.2198 142.768 37.6332C142.768 36.9221 143.283 36.5665 143.923 36.4598L146.181 36.1221V36.5132C146.181 38.2021 145.185 38.7532 144.03 38.7532ZM151.124 43.6063H153.328L158.839 31.4463H156.653L154.324 36.9218L151.835 31.4463H149.506L153.204 39.073L151.124 43.6063Z" fill="white"/>
<path d="M23.1065 15.8037C23.0439 16.0266 23 16.2658 23 16.54V39.1116C23 39.382 23.0423 39.62 23.1036 39.84L35.6896 27.8379L23.1065 15.8037Z" fill="#48A0DC"/>
<path d="M25.9049 14.927C25.3191 14.5674 24.7416 14.4774 24.2539 14.6015L36.8925 26.689L40.5998 23.1545L25.9049 14.927Z" fill="#88C057"/>
<path d="M46.02 26.1875L42.0973 23.9912L38.0801 27.822L42.1727 31.737L45.9897 29.6275C47.8512 28.5595 47.1713 26.8387 46.02 26.1875Z" fill="#FFCC66"/>
<path d="M36.8741 28.9707L24.2197 41.0365C24.7148 41.1761 25.3056 41.0932 25.9064 40.7245L40.6472 32.579L36.8741 28.9707Z" fill="#ED7161"/>
</svg>
