<?xml version="1.0" encoding="UTF-8"?>
<svg id="Layer_1" xmlns="http://www.w3.org/2000/svg" version="1.1" viewBox="0 0 825 825">
  <!-- Generator: Adobe Illustrator 29.1.0, SVG Export Plug-In . SVG Version: 2.1.0 Build 142)  -->
  <defs>
    <style>
      .st0 {
        fill: #fff;
      }

      .st1 {
        fill: #0578ff;
      }
    </style>
  </defs>
  <circle class="st1" cx="412.5" cy="412.5" r="412.5"/>
  <g>
    <g>
      <g>
        <path class="st0" d="M185.9,526.1v-127.8c0-2,1.5-3.1,3.1-3.1h16.3c2,0,3.1,1,3.6,3.1l2.5,12.2h1c4.6-10.7,14.8-17.3,26-17.3,21.4,0,35.1,21.4,35.1,53.5s-14.3,53.5-35.1,53.5-18.8-5.1-25-16.8h-1v43.3c0,2-1.5,3.1-3.1,3.1h-19.9c-2-.5-3.6-1.5-3.6-3.6ZM228.7,477.7c11.2,0,17.3-11.2,17.3-31.6s-6.1-31.6-17.3-31.6-17.3,11.2-17.3,31.6,6.1,31.6,17.3,31.6Z"/>
        <path class="st0" d="M342.2,420.6c-4.6-2-8.1-3.6-13.2-3.6-10.2,0-15.3,7.6-15.3,21.9v55c0,2-1.5,3.1-3.1,3.1h-19.9c-2,0-3.1-1.5-3.1-3.1v-95.7c0-2,1.5-3.1,3.1-3.1h16.3c2,0,3.1,1,3.6,3.1l2.5,12.2h1c4.6-11.2,13.2-17.3,24.4-17.3s8.7,1,11.7,2.5c1.5,1,2,2,1.5,4.6l-4.6,18.8c-1,2-3.1,2.5-5.1,1.5Z"/>
        <path class="st0" d="M373.8,356.5c8.1,0,15.3,5.6,15.3,15.3s-7.1,15.3-15.3,15.3-15.3-6.1-15.3-15.3,7.1-15.3,15.3-15.3ZM360.6,494v-95.7c0-2,1.5-3.1,3.1-3.1h19.9c2,0,3.1,1.5,3.1,3.1v95.7c0,2-1.5,3.1-3.1,3.1h-19.9c-1.5.5-3.1-1-3.1-3.1Z"/>
        <path class="st0" d="M455.3,392.6c12.2,0,21.4,6.6,26,18.3h1c7.1-12.2,16.3-18.3,27.5-18.3,18.3,0,29.5,15.3,29.5,40.2v61.1c0,2-1.5,3.1-3.1,3.1h-19.9c-2,0-3.1-1.5-3.1-3.1v-58.6c0-11.7-4.6-18.3-13.2-18.3s-14.8,7.6-14.8,21.9v55c0,2-1.5,3.1-3.1,3.1h-19.9c-2,0-3.1-1.5-3.1-3.1v-58.6c0-11.7-4.6-18.3-13.2-18.3s-14.8,7.6-14.8,21.9v55c0,2-1.5,3.1-3.1,3.1h-19.9c-2,0-3.1-1.5-3.1-3.1v-95.7c0-2,1.5-3.1,3.1-3.1h16.3c2,0,3.1,1,3.6,3.1l2.5,12.2h1c3.6-11.2,12.2-17.8,23.4-17.8Z"/>
        <path class="st0" d="M596.9,392.6c25,0,42.3,21.9,42.3,52.5v5.1c0,2-1.5,3.1-3.1,3.1h-56.5c1,16.8,6.6,25.5,17.3,25.5s13.7-3.6,15.8-13.2c.5-2,1.5-3.1,3.6-2.5l18.3,4.1c2,.5,3.1,2,2,4.1-6.1,18.3-20.4,28-39.7,28s-44.3-21.4-44.3-52.5c-.5-31.1,18.3-54,44.3-54ZM612.6,436.4c-1.5-15.3-6.6-23.4-15.8-23.4s-15.3,8.1-16.8,23.4h32.6Z"/>
      </g>
      <path class="st0" d="M538.8,538.8c9.7-5.1,20.4-7.6,31.1-7.6s23.9,3.1,27.5,8.1c3.6,5.1,2,19.4-1.5,29-3.6,10.2-9.7,19.4-17.8,26.5-3.6,3.6-7.6,6.6-10.7,6.6s-2-.5-2.5-1c-2.5-2.5-1.5-5.6,1.5-10.7,8.7-13.2,15.3-31.6,12.2-36.7-3.6-4.6-22.9-4.1-38.7-1-5.6,1-9.7,1-10.7-2-2-4.6,3.6-8.1,9.7-11.2Z"/>
      <path class="st0" d="M243.4,537.8c2.5-2,6.1-.5,12.2,4.1,45.8,37.2,106.9,50.9,163.5,50.9s97.3-11.2,128.3-27c5.1-2.5,9.7-5.1,12.2-2,1,1,1.5,2,1.5,3.6,0,3.1-3.1,7.1-8.7,12.2-33.1,28.5-85,44.8-139,44.8s-125.3-21.4-165-70.3c-3.1-4.1-5.1-7.1-6.1-10.2-1-3.1,0-5.1,1-6.1Z"/>
    </g>
    <g>
      <path class="st0" d="M143.6,339.2c-17.8,0-29.5-12.2-29.5-30.6s17.3-36.2,44.8-36.2,7.1,0,10.2,1v-2.5c0-12.7-4.6-18.3-13.8-18.3s-12.2,4.1-14.3,11.7c-.5,2-2,3.6-4.1,3.1l-17.3-3.1c-2-.5-3.1-2-2.5-4.6,4.6-17.3,18.8-27,39.7-27s38.2,13.8,38.2,39.2v61.6c0,2-1.5,3.1-3.1,3.1h-16.3c-2,0-3.1-1-3.6-3.1l-2.5-11.7h-1c-4.1,11.2-12.7,17.3-25,17.3ZM153.8,319.8c10.2,0,15.8-9.2,15.8-26.5v-6.6c-2-.5-4.1-.5-6.6-.5-13.2,0-21.9,7.6-21.9,19.4s5.1,14.3,12.7,14.3Z"/>
      <path class="st0" d="M261.8,232.7c12.2,0,21.4,6.6,26,18.3h1c7.1-12.2,16.3-18.3,27.5-18.3,18.3,0,29.5,15.3,29.5,40.2v60.6c0,2-1.5,3.1-3.1,3.1h-19.9c-2,0-3.1-1.5-3.1-3.1v-58.6c0-11.7-4.6-18.3-13.2-18.3s-14.8,7.6-14.8,21.9v55.5c0,2-1.5,3.1-3.1,3.1h-19.9c-2,0-3.1-1.5-3.1-3.1v-59.1c0-11.7-4.6-18.3-13.2-18.3s-14.8,7.6-14.8,21.9v55.5c0,2-1.5,3.1-3.1,3.1h-19.9c-2,0-3.1-1.5-3.1-3.1v-96.2c0-2,1.5-3.1,3.1-3.1h16.3c2,0,3.1,1,3.6,3.1l2.5,12.2h1c3.6-11.2,12.2-17.3,23.4-17.3Z"/>
      <path class="st0" d="M386,339.2c-17.8,0-29.5-12.2-29.5-30.6s17.3-36.2,44.8-36.2,7.1,0,10.2,1v-2.5c0-12.7-4.6-18.3-13.7-18.3s-12.2,4.1-14.3,11.7c-.5,2-2,3.6-4.1,3.1l-17.3-3.1c-2-.5-3.1-2-2.5-4.6,4.6-17.3,18.8-27,39.7-27s38.2,13.8,38.2,39.2v61.6c0,2-1.5,3.1-3.1,3.1h-16.3c-2,0-3.1-1-3.6-3.1l-2-11.2h-1c-4.1,10.7-13.2,16.8-25.5,16.8ZM396.2,319.8c10.2,0,15.8-9.2,15.8-26.5v-6.6c-2-.5-4.1-.5-6.6-.5-13.2,0-21.9,7.6-21.9,19.4,0,8.7,5.1,14.3,12.7,14.3Z"/>
      <path class="st0" d="M448.7,318.8c0-1.5.5-3.1,1.5-4.6l40.2-59.1h-37.2c-2,0-3.1-1.5-3.1-3.1v-14.3c0-2,1.5-3.1,3.1-3.1h64.7c2,0,3.1,1.5,3.1,3.1v14.8c0,1.5-.5,3.1-1.5,4.6l-40.2,59.1h40.7c2,0,3.1,1.5,3.1,3.1v14.3c0,2-1.5,3.1-3.1,3.1h-67.7c-2,0-3.1-1.5-3.1-3.1v-14.8h-.5Z"/>
      <path class="st0" d="M528.1,285.7c0-30.6,18.8-53.5,44.3-53.5s44.3,22.9,44.3,53.5-19.4,53.5-44.3,53.5-44.3-22.9-44.3-53.5ZM571.9,318.3c11.2,0,17.3-11.7,17.3-32.6s-6.1-32.6-17.3-32.6-17.3,11.7-17.3,32.6c.5,20.9,6.6,32.6,17.3,32.6Z"/>
      <path class="st0" d="M680.4,232.7c18.8,0,30.6,15.3,30.6,40.2v60.6c0,2-1.5,3.1-3.1,3.1h-19.9c-2,0-3.1-1.5-3.1-3.1v-58.6c0-11.7-5.1-18.3-14.3-18.3s-15.3,7.6-15.3,21.9v55.5c0,2-1.5,3.1-3.1,3.1h-19.9c-2,0-3.1-1.5-3.1-3.1v-96.2c0-2,1.5-3.1,3.1-3.1h16.3c2,0,3.1,1,3.6,3.1l2.5,12.2h1c4.1-11.2,12.7-17.3,24.4-17.3Z"/>
    </g>
  </g>
</svg>