<?xml version="1.0" encoding="UTF-8"?>
<svg id="Layer_1" data-name="Layer 1" xmlns="http://www.w3.org/2000/svg" xmlns:xlink="http://www.w3.org/1999/xlink" viewBox="0 0 60 60">
  <defs>
    <style>
      .cls-1 {
        fill: #010101;
      }

      .cls-2 {
        fill: #fff;
      }

      .cls-3 {
        fill: url(#linear-gradient);
      }
    </style>
    <linearGradient id="linear-gradient" x1="30.27" y1="23.84" x2="57.22" y2="41.78" gradientTransform="translate(0 62) scale(1 -1)" gradientUnits="userSpaceOnUse">
      <stop offset=".15" stop-color="#03bfd6"/>
      <stop offset=".3" stop-color="#6fcc00"/>
      <stop offset=".5" stop-color="#ffac00"/>
      <stop offset=".8" stop-color="#ff6100"/>
      <stop offset=".95" stop-color="#f000d1"/>
    </linearGradient>
  </defs>
  <rect class="cls-1" y="0" width="60" height="60"/>
  <g>
    <path class="cls-2" d="M34.56,10.53H6.74v1.35h19.09L6,49.47h27.82v-1.35H14.73L34.56,10.53Z"/>
    <path class="cls-3" d="M44.41,44.6c-1.86,0-3.49-.34-4.88-1.03-1.37-.68-2.47-1.61-3.32-2.79-.82-1.18-1.37-2.5-1.64-3.98h1.85c.41,1.89,1.3,3.39,2.67,4.51,1.39,1.09,3.17,1.64,5.33,1.64,1.64,0,3.03-.37,4.18-1.11,1.15-.77,2.02-1.78,2.63-3.03.63-1.29.94-2.72.94-4.31s-.31-3.05-.94-4.31c-.63-1.29-1.53-2.28-2.71-2.99-1.15-.71-2.49-1.07-4.02-1.07-1.86,0-3.43.4-4.72,1.19-1.28.79-2.26,1.85-2.91,3.16h-1.72l2.38-15.09h14.44v1.64h-12.96l-1.8,10.7c.68-.9,1.65-1.67,2.91-2.3,1.29-.63,2.77-.94,4.47-.94,1.31,0,2.53.23,3.65.7,1.15.46,2.15,1.15,2.99,2.05.87.87,1.56,1.93,2.05,3.16.49,1.2.74,2.57.74,4.1,0,1.28-.21,2.54-.62,3.77-.38,1.2-.98,2.28-1.8,3.24-.79.93-1.79,1.68-2.99,2.26-1.18.55-2.57.82-4.18.82Z"/>
  </g>
</svg>