<?xml version="1.0" encoding="utf-8"?>
<!-- Generator: Adobe Illustrator 26.0.3, SVG Export Plug-In . SVG Version: 6.00 Build 0)  -->
<svg version="1.1" id="Layer_1" xmlns="http://www.w3.org/2000/svg" xmlns:xlink="http://www.w3.org/1999/xlink" x="0px" y="0px"
	 viewBox="0 0 367.3 364.5" style="enable-background:new 0 0 367.3 364.5;" xml:space="preserve">
<style type="text/css">
	.st0{fill:#FFFFFF;}
	.st1{fill:url(#SVGID_1_);}
	
		.st2{opacity:0.2;clip-path:url(#SVGID_00000054227101519110785830000002219413051793771918_);fill:url(#SVGID_00000068658487639535704800000003075802562182133392_);}
	
		.st3{opacity:0.2;clip-path:url(#SVGID_00000054227101519110785830000002219413051793771918_);fill:url(#SVGID_00000163783912990623528700000006015417896376094869_);}
	.st4{opacity:0.2;clip-path:url(#SVGID_00000054227101519110785830000002219413051793771918_);fill:#EA4771;}
	
		.st5{clip-path:url(#SVGID_00000135656006224917490620000017845529373828312994_);fill:url(#XMLID_00000016076732574752581840000005262279478535542914_);}
	.st6{fill:#FFDD1B;}
</style>
<g>
	<path class="st0" d="M123.7-18.1c0-0.4,0-0.8-0.1-1.2c0.3,0,0.6,0,0.9,0c0.3,0,0.6,0,0.9,0c0.3,0,0.6,0,0.9,0c0.3,0,0.6,0,1,0
		c0,0.1,0,0.2,0,0.3c0,0.1,0,0.2,0,0.3c-0.2,0-0.4,0-0.6-0.1c-0.2,0-0.5,0-0.7,0c-0.3,0-0.5,0-0.7,0c-0.2,0-0.4,0-0.6,0
		c0,0.2,0,0.4,0,0.6c0,0.2,0,0.4,0,0.6c0,0.2,0,0.4,0,0.6c0,0.2,0,0.4,0,0.6c0.4,0,0.8,0,1.3,0c0.4,0,0.8,0,1.2-0.1
		c0,0.1,0,0.2,0,0.3c0,0.1,0,0.2,0,0.3c-0.2,0-0.3,0-0.5,0c-0.2,0-0.4,0-0.6,0c-0.2,0-0.4,0-0.7,0c-0.2,0-0.4,0-0.6,0v0.8
		c0,0.4,0,0.8,0,1.3c0,0.4,0,0.8,0.1,1.2c-0.1,0-0.3,0-0.5,0c-0.2,0-0.3,0-0.5,0c0-0.4,0-0.8,0.1-1.2c0-0.4,0-0.8,0-1.3v-1.7
		C123.7-17.3,123.7-17.7,123.7-18.1z"/>
	<path class="st0" d="M130.6-18.1c0-0.4,0-0.8-0.1-1.2c0.1,0,0.2,0,0.2,0c0.1,0,0.2,0,0.2,0c0.1,0,0.2,0,0.2,0c0.1,0,0.2,0,0.2,0
		c0,0.4,0,0.8-0.1,1.2c0,0.4,0,0.8,0,1.2v1.7c0,0.4,0,0.8,0,1.3c0,0.4,0,0.8,0.1,1.2c-0.1,0-0.3,0-0.5,0c-0.2,0-0.3,0-0.5,0
		c0-0.4,0-0.8,0.1-1.2c0-0.4,0-0.8,0-1.3v-1.7C130.6-17.3,130.6-17.7,130.6-18.1z"/>
	<path class="st0" d="M138.5-15.3c-0.8-0.9-1.7-1.8-2.5-2.7c0,0.2,0,0.4,0,0.7c0,0.3,0,0.7,0,1.2c0,0.1,0,0.3,0,0.5
		c0,0.2,0,0.4,0,0.6c0,0.2,0,0.4,0,0.7c0,0.2,0,0.4,0,0.6c0,0.2,0,0.4,0,0.5c0,0.1,0,0.2,0,0.3c-0.1,0-0.2,0-0.3,0
		c-0.1,0-0.2,0-0.4,0c0-0.1,0-0.2,0-0.4c0-0.2,0-0.4,0-0.6c0-0.2,0-0.5,0-0.8c0-0.3,0-0.6,0-0.8c0-0.3,0-0.6,0-0.8
		c0-0.3,0-0.5,0-0.7c0-0.6,0-1.1,0-1.6c0-0.4,0-0.8,0-1h0.2c0.4,0.4,0.8,0.9,1.3,1.4c0.4,0.5,0.9,1,1.3,1.4c0.4,0.5,0.9,0.9,1.3,1.3
		c0.4,0.4,0.7,0.8,1,1.1v-1.3c0-0.7,0-1.3,0-2c0-0.6,0-1.2-0.1-1.8c0.1,0,0.2,0,0.3,0c0.1,0,0.2,0,0.3,0c0,0.1,0,0.4,0,0.6
		c0,0.3,0,0.6,0,0.9c0,0.3,0,0.6,0,0.9c0,0.3,0,0.6,0,0.7c0,0.2,0,0.4,0,0.6c0,0.2,0,0.4,0,0.7c0,0.2,0,0.5,0,0.7c0,0.2,0,0.5,0,0.7
		c0,0.2,0,0.4,0,0.5c0,0.1,0,0.2,0,0.3h-0.1C140.1-13.5,139.3-14.4,138.5-15.3z"/>
	<path class="st0" d="M150.2-12.7c-0.1,0-0.2,0-0.3,0s-0.2,0-0.3,0c-0.1,0-0.2,0-0.3,0c-0.1,0-0.2,0-0.3,0c0-0.1-0.1-0.3-0.2-0.5
		c-0.1-0.2-0.2-0.4-0.3-0.7c-0.1-0.2-0.2-0.5-0.3-0.7c-0.1-0.2-0.2-0.5-0.3-0.7c-0.2,0-0.4,0-0.6,0c-0.2,0-0.4,0-0.6,0
		c-0.2,0-0.4,0-0.6,0c-0.2,0-0.4,0-0.6,0c-0.2,0.5-0.4,1-0.6,1.4c-0.2,0.5-0.3,0.8-0.4,1.1c-0.1,0-0.2,0-0.4,0c-0.1,0-0.2,0-0.4,0
		c0.5-1.1,1-2.2,1.5-3.4c0.5-1.1,1-2.2,1.5-3.4h0.2c0.2,0.4,0.3,0.8,0.5,1.2c0.2,0.4,0.4,0.9,0.5,1.3c0.2,0.4,0.4,0.9,0.6,1.3
		c0.2,0.4,0.4,0.8,0.5,1.2c0.2,0.4,0.3,0.7,0.4,1C150-13.1,150.1-12.9,150.2-12.7z M145.9-15.7c0.2,0,0.3,0,0.5,0c0.2,0,0.4,0,0.5,0
		c0.2,0,0.4,0,0.5,0c0.2,0,0.4,0,0.5,0l-1.1-2.4L145.9-15.7z"/>
	<path class="st0" d="M153.4-18.1c0-0.4,0-0.8-0.1-1.2c0.1,0,0.2,0,0.2,0c0.1,0,0.2,0,0.2,0c0.1,0,0.2,0,0.2,0c0.1,0,0.2,0,0.2,0
		c0,0.4,0,0.8-0.1,1.2c0,0.4,0,0.8,0,1.2c0,0.8,0,1.5,0,2.1c0,0.6,0,1.1,0,1.6c0.5,0,0.9,0,1.3,0c0.4,0,0.9,0,1.3-0.1
		c0,0.1,0,0.2,0,0.3c0,0.1,0,0.2,0,0.3c-0.3,0-0.6,0-0.9,0c-0.3,0-0.6,0-0.9,0c-0.3,0-0.6,0-0.9,0c-0.3,0-0.6,0-0.9,0
		c0-0.4,0-0.8,0.1-1.2c0-0.4,0-0.8,0-1.3v-1.7C153.4-17.3,153.4-17.7,153.4-18.1z"/>
	<path class="st0" d="M168.3-15.3c-0.8-0.9-1.7-1.8-2.5-2.7c0,0.2,0,0.4,0,0.7c0,0.3,0,0.7,0,1.2c0,0.1,0,0.3,0,0.5
		c0,0.2,0,0.4,0,0.6c0,0.2,0,0.4,0,0.7c0,0.2,0,0.4,0,0.6c0,0.2,0,0.4,0,0.5c0,0.1,0,0.2,0,0.3c-0.1,0-0.2,0-0.3,0
		c-0.1,0-0.2,0-0.4,0c0-0.1,0-0.2,0-0.4c0-0.2,0-0.4,0-0.6c0-0.2,0-0.5,0-0.8c0-0.3,0-0.6,0-0.8c0-0.3,0-0.6,0-0.8
		c0-0.3,0-0.5,0-0.7c0-0.6,0-1.1,0-1.6c0-0.4,0-0.8,0-1h0.2c0.4,0.4,0.8,0.9,1.3,1.4c0.4,0.5,0.9,1,1.3,1.4c0.4,0.5,0.9,0.9,1.3,1.3
		c0.4,0.4,0.7,0.8,1,1.1v-1.3c0-0.7,0-1.3,0-2c0-0.6,0-1.2-0.1-1.8c0.1,0,0.2,0,0.3,0c0.1,0,0.2,0,0.3,0c0,0.1,0,0.4,0,0.6
		c0,0.3,0,0.6,0,0.9c0,0.3,0,0.6,0,0.9c0,0.3,0,0.6,0,0.7c0,0.2,0,0.4,0,0.6c0,0.2,0,0.4,0,0.7c0,0.2,0,0.5,0,0.7c0,0.2,0,0.5,0,0.7
		c0,0.2,0,0.4,0,0.5c0,0.1,0,0.2,0,0.3h-0.1C169.9-13.5,169.1-14.4,168.3-15.3z"/>
	<path class="st0" d="M177-16.7c0.3-0.4,0.6-0.9,0.8-1.3c0.3-0.4,0.5-0.9,0.8-1.4c0.1,0,0.3,0,0.4,0c0.1,0,0.2,0,0.4,0
		c-0.4,0.5-0.7,1-1.1,1.5c-0.4,0.5-0.7,1-1,1.5c0.4,0.6,0.7,1.2,1.1,1.8c0.4,0.6,0.7,1.2,1.1,1.8c-0.1,0-0.2,0-0.3,0
		c-0.1,0-0.2,0-0.3,0c-0.1,0-0.2,0-0.3,0c-0.1,0-0.2,0-0.3,0c-0.3-0.5-0.5-0.9-0.8-1.4c-0.3-0.5-0.5-1-0.9-1.5
		c-0.3,0.5-0.6,1-0.9,1.5c-0.3,0.5-0.6,1-0.8,1.4c-0.1,0-0.1,0-0.2,0c-0.1,0-0.1,0-0.2,0c-0.1,0-0.1,0-0.2,0c-0.1,0-0.1,0-0.2,0
		c0.4-0.5,0.8-1.1,1.1-1.6s0.7-1.1,1.1-1.7c-0.3-0.6-0.7-1.1-1-1.7c-0.3-0.5-0.7-1.1-1-1.7c0.1,0,0.2,0,0.3,0c0.1,0,0.2,0,0.3,0
		c0.1,0,0.2,0,0.3,0c0.1,0,0.2,0,0.3,0c0.2,0.4,0.4,0.9,0.7,1.3C176.4-17.7,176.7-17.2,177-16.7z"/>
	<path class="st0" d="M184.1-18.9c-0.2,0-0.3,0-0.5,0c-0.2,0-0.4,0-0.5,0c-0.2,0-0.4,0-0.5,0c-0.2,0-0.3,0-0.5,0c0-0.1,0-0.2,0-0.3
		c0-0.1,0-0.2,0-0.3c0.4,0,0.8,0,1.2,0c0.4,0,0.8,0,1.2,0c0.4,0,0.8,0,1.2,0c0.4,0,0.8,0,1.2,0c0,0.1,0,0.2,0,0.3c0,0.1,0,0.2,0,0.3
		c-0.1,0-0.3,0-0.5,0c-0.2,0-0.3,0-0.5,0c-0.2,0-0.4,0-0.5,0c-0.2,0-0.4,0-0.5,0c0,0.7,0,1.3,0,2v1.7c0,0.4,0,0.8,0,1.3
		c0,0.4,0,0.8,0.1,1.2c-0.1,0-0.3,0-0.5,0c-0.2,0-0.3,0-0.5,0c0-0.4,0-0.8,0.1-1.2c0-0.4,0-0.8,0-1.3v-1.7
		C184.2-17.5,184.2-18.2,184.1-18.9z"/>
	<path class="st0" d="M200.1-12.7c-0.1,0-0.2,0-0.3,0c-0.1,0-0.2,0-0.3,0c-0.1,0-0.2,0-0.3,0c-0.1,0-0.2,0-0.3,0
		c0-0.1-0.1-0.3-0.2-0.5c-0.1-0.2-0.2-0.4-0.3-0.7c-0.1-0.2-0.2-0.5-0.3-0.7c-0.1-0.2-0.2-0.5-0.3-0.7c-0.2,0-0.4,0-0.6,0
		c-0.2,0-0.4,0-0.6,0c-0.2,0-0.4,0-0.6,0c-0.2,0-0.4,0-0.6,0c-0.2,0.5-0.4,1-0.6,1.4c-0.2,0.5-0.3,0.8-0.4,1.1c-0.1,0-0.2,0-0.4,0
		c-0.1,0-0.2,0-0.4,0c0.5-1.1,1-2.2,1.5-3.4c0.5-1.1,1-2.2,1.5-3.4h0.2c0.2,0.4,0.3,0.8,0.5,1.2c0.2,0.4,0.4,0.9,0.5,1.3
		c0.2,0.4,0.4,0.9,0.6,1.3c0.2,0.4,0.4,0.8,0.5,1.2c0.2,0.4,0.3,0.7,0.4,1C199.9-13.1,200-12.9,200.1-12.7z M195.8-15.7
		c0.2,0,0.3,0,0.5,0c0.2,0,0.4,0,0.5,0c0.2,0,0.4,0,0.5,0c0.2,0,0.4,0,0.5,0l-1.1-2.4L195.8-15.7z"/>
	<path class="st0" d="M203.3-16.9c0-0.4,0-0.8,0-1.2c0-0.4,0-0.8-0.1-1.2c0.2,0,0.3,0,0.5,0c0.2,0,0.3,0,0.5,0c0.1,0,0.2,0,0.3,0
		c0.1,0,0.2,0,0.3,0c0.1,0,0.2,0,0.3,0c0.1,0,0.2,0,0.3,0c0.1,0,0.2,0,0.4,0c0.1,0,0.3,0,0.4,0.1c0.2,0,0.3,0.1,0.5,0.1
		c0.2,0.1,0.3,0.2,0.4,0.3c0.1,0.1,0.2,0.3,0.3,0.5c0.1,0.2,0.1,0.4,0.1,0.7c0,0.4-0.1,0.8-0.3,1c-0.2,0.3-0.4,0.5-0.7,0.6
		c-0.3,0.1-0.5,0.2-0.8,0.3c-0.3,0.1-0.6,0.1-0.8,0.1c-0.1,0-0.3,0-0.4,0c-0.1,0-0.2,0-0.4,0v0.5c0,0.4,0,0.8,0,1.3
		c0,0.4,0,0.8,0.1,1.2c-0.1,0-0.3,0-0.5,0c-0.2,0-0.3,0-0.5,0c0-0.4,0-0.8,0.1-1.2c0-0.4,0-0.8,0-1.3V-16.9z M204.1-16.2
		c0.2,0.1,0.4,0.1,0.7,0.1c0.2,0,0.4,0,0.6-0.1c0.2,0,0.4-0.1,0.6-0.2c0.2-0.1,0.3-0.3,0.4-0.5c0.1-0.2,0.2-0.5,0.2-0.8
		c0-0.3,0-0.5-0.1-0.7c-0.1-0.2-0.2-0.3-0.3-0.4c-0.1-0.1-0.3-0.2-0.5-0.2c-0.2,0-0.4-0.1-0.7-0.1h-0.9V-16.2z"/>
	<path class="st0" d="M210.8-16.9c0-0.4,0-0.8,0-1.2c0-0.4,0-0.8-0.1-1.2c0.2,0,0.3,0,0.5,0c0.2,0,0.3,0,0.5,0c0.1,0,0.2,0,0.3,0
		c0.1,0,0.2,0,0.3,0c0.1,0,0.2,0,0.3,0c0.1,0,0.2,0,0.3,0c0.1,0,0.2,0,0.4,0c0.1,0,0.3,0,0.4,0.1c0.2,0,0.3,0.1,0.5,0.1
		c0.2,0.1,0.3,0.2,0.4,0.3c0.1,0.1,0.2,0.3,0.3,0.5c0.1,0.2,0.1,0.4,0.1,0.7c0,0.4-0.1,0.8-0.3,1c-0.2,0.3-0.4,0.5-0.7,0.6
		c-0.3,0.1-0.5,0.2-0.8,0.3c-0.3,0.1-0.6,0.1-0.8,0.1c-0.1,0-0.3,0-0.4,0c-0.1,0-0.2,0-0.4,0v0.5c0,0.4,0,0.8,0,1.3
		c0,0.4,0,0.8,0.1,1.2c-0.1,0-0.3,0-0.5,0c-0.2,0-0.3,0-0.5,0c0-0.4,0-0.8,0.1-1.2c0-0.4,0-0.8,0-1.3V-16.9z M211.6-16.2
		c0.2,0.1,0.4,0.1,0.7,0.1c0.2,0,0.4,0,0.6-0.1c0.2,0,0.4-0.1,0.6-0.2c0.2-0.1,0.3-0.3,0.4-0.5c0.1-0.2,0.2-0.5,0.2-0.8
		c0-0.3,0-0.5-0.1-0.7c-0.1-0.2-0.2-0.3-0.3-0.4c-0.1-0.1-0.3-0.2-0.5-0.2c-0.2,0-0.4-0.1-0.7-0.1h-0.9V-16.2z"/>
	<path class="st0" d="M223.1-18.1c0-0.4,0-0.8-0.1-1.2c0.1,0,0.2,0,0.2,0c0.1,0,0.2,0,0.2,0c0.1,0,0.2,0,0.2,0c0.1,0,0.2,0,0.2,0
		c0,0.4,0,0.8-0.1,1.2c0,0.4,0,0.8,0,1.2c0,0.8,0,1.5,0,2.1c0,0.6,0,1.1,0,1.6c0.5,0,0.9,0,1.3,0c0.4,0,0.9,0,1.3-0.1
		c0,0.1,0,0.2,0,0.3c0,0.1,0,0.2,0,0.3c-0.3,0-0.6,0-0.9,0s-0.6,0-0.9,0c-0.3,0-0.6,0-0.9,0c-0.3,0-0.6,0-0.9,0c0-0.4,0-0.8,0.1-1.2
		c0-0.4,0-0.8,0-1.3v-1.7C223.1-17.3,223.1-17.7,223.1-18.1z"/>
	<path class="st0" d="M229.5-16c0-0.5,0.1-1,0.3-1.5c0.2-0.4,0.4-0.8,0.7-1.1c0.3-0.3,0.7-0.5,1.1-0.7c0.4-0.2,0.9-0.2,1.5-0.2
		c0.5,0,1,0.1,1.5,0.2c0.4,0.2,0.8,0.4,1.1,0.7c0.3,0.3,0.6,0.7,0.7,1.1c0.2,0.4,0.3,0.9,0.3,1.5s-0.1,1-0.3,1.5
		c-0.2,0.4-0.4,0.8-0.7,1.1c-0.3,0.3-0.7,0.5-1.1,0.7c-0.4,0.1-0.9,0.2-1.5,0.2c-0.5,0-1-0.1-1.5-0.2c-0.4-0.1-0.8-0.4-1.1-0.7
		c-0.3-0.3-0.6-0.7-0.7-1.1C229.6-15,229.5-15.5,229.5-16z M235.8-16c0-0.5-0.1-1-0.2-1.4c-0.1-0.4-0.3-0.7-0.6-1
		c-0.2-0.3-0.5-0.4-0.8-0.6c-0.3-0.1-0.7-0.2-1.1-0.2c-0.4,0-0.7,0.1-1,0.2c-0.3,0.1-0.6,0.3-0.8,0.6c-0.2,0.3-0.4,0.6-0.6,1
		c-0.1,0.4-0.2,0.9-0.2,1.4c0,0.5,0.1,1,0.2,1.4c0.1,0.4,0.3,0.7,0.6,1c0.2,0.3,0.5,0.4,0.8,0.6c0.3,0.1,0.7,0.2,1,0.2
		c0.4,0,0.7-0.1,1.1-0.2c0.3-0.1,0.6-0.3,0.8-0.6c0.2-0.3,0.4-0.6,0.6-1C235.7-15.1,235.8-15.5,235.8-16z"/>
	<path class="st0" d="M245.4-18.5c-0.1-0.1-0.3-0.2-0.5-0.3c-0.2-0.1-0.4-0.2-0.6-0.2c-0.2-0.1-0.4-0.1-0.7-0.1
		c-0.4,0-0.8,0.1-1.1,0.2c-0.3,0.1-0.6,0.3-0.9,0.6c-0.3,0.3-0.5,0.6-0.6,1c-0.1,0.4-0.2,0.9-0.2,1.4c0,0.5,0.1,0.9,0.2,1.3
		c0.1,0.4,0.3,0.7,0.6,1c0.2,0.3,0.5,0.5,0.9,0.6c0.4,0.1,0.8,0.2,1.2,0.2c0.1,0,0.3,0,0.4,0c0.1,0,0.3,0,0.4-0.1
		c0.1,0,0.3-0.1,0.4-0.1c0.1,0,0.2-0.1,0.3-0.1c0-0.2,0-0.4,0-0.6c0-0.2,0-0.4,0-0.6c0-0.2,0-0.5,0-0.7c0-0.2,0-0.4,0-0.6
		c0.2,0,0.3,0,0.5,0c0.1,0,0.1,0,0.2,0c0.1,0,0.1,0,0.2,0c0,0.1,0,0.4,0,0.7c0,0.3,0,0.7,0,1.3c0,0.1,0,0.3,0,0.4c0,0.1,0,0.3,0,0.4
		c-0.1,0.1-0.3,0.1-0.5,0.2c-0.2,0.1-0.4,0.1-0.6,0.1c-0.2,0-0.5,0.1-0.7,0.1c-0.2,0-0.4,0-0.6,0c-0.6,0-1.1-0.1-1.5-0.2
		c-0.5-0.1-0.9-0.4-1.2-0.6c-0.3-0.3-0.6-0.6-0.7-1.1c-0.2-0.4-0.3-0.9-0.3-1.5c0-0.5,0.1-1,0.3-1.5c0.2-0.4,0.4-0.8,0.8-1.1
		c0.3-0.3,0.7-0.5,1.2-0.7c0.5-0.2,1-0.2,1.5-0.2c0.3,0,0.6,0,0.9,0.1c0.3,0,0.5,0.1,0.7,0.1c0.2,0.1,0.4,0.1,0.5,0.2
		c0.1,0.1,0.3,0.1,0.4,0.2c-0.1,0.1-0.1,0.2-0.1,0.3c0,0.1-0.1,0.3-0.1,0.4h-0.1C245.6-18.3,245.5-18.4,245.4-18.5z"/>
	<path class="st0" d="M249.3-16c0-0.5,0.1-1,0.3-1.5c0.2-0.4,0.4-0.8,0.7-1.1c0.3-0.3,0.7-0.5,1.1-0.7c0.4-0.2,0.9-0.2,1.5-0.2
		c0.5,0,1,0.1,1.5,0.2c0.4,0.2,0.8,0.4,1.1,0.7c0.3,0.3,0.6,0.7,0.7,1.1c0.2,0.4,0.3,0.9,0.3,1.5s-0.1,1-0.3,1.5
		c-0.2,0.4-0.4,0.8-0.7,1.1c-0.3,0.3-0.7,0.5-1.1,0.7c-0.4,0.1-0.9,0.2-1.5,0.2c-0.5,0-1-0.1-1.5-0.2c-0.4-0.1-0.8-0.4-1.1-0.7
		c-0.3-0.3-0.6-0.7-0.7-1.1C249.4-15,249.3-15.5,249.3-16z M255.6-16c0-0.5-0.1-1-0.2-1.4c-0.1-0.4-0.3-0.7-0.6-1
		c-0.2-0.3-0.5-0.4-0.8-0.6c-0.3-0.1-0.7-0.2-1.1-0.2c-0.4,0-0.7,0.1-1,0.2c-0.3,0.1-0.6,0.3-0.8,0.6c-0.2,0.3-0.4,0.6-0.6,1
		c-0.1,0.4-0.2,0.9-0.2,1.4c0,0.5,0.1,1,0.2,1.4c0.1,0.4,0.3,0.7,0.6,1s0.5,0.4,0.8,0.6c0.3,0.1,0.7,0.2,1,0.2
		c0.4,0,0.7-0.1,1.1-0.2c0.3-0.1,0.6-0.3,0.8-0.6c0.2-0.3,0.4-0.6,0.6-1C255.5-15.1,255.6-15.5,255.6-16z"/>
</g>
<g>
	<linearGradient id="SVGID_1_" gradientUnits="userSpaceOnUse" x1="267.1159" y1="326.8716" x2="99.9717" y2="37.3693">
		<stop  offset="0" style="stop-color:#D61C55"/>
		<stop  offset="1" style="stop-color:#BC2030"/>
	</linearGradient>
	<path class="st1" d="M350.8,182.1c0,92-75.3,167.3-167.3,167.3h0c-92,0-167.3-75.3-167.3-167.3v0c0-92,75.3-167.3,167.3-167.3h0
		C275.5,14.8,350.8,90.1,350.8,182.1L350.8,182.1z"/>
	<g>
		<defs>
			<path id="SVGID_00000047752019987147325630000007971302084607220654_" d="M351.5,182.4c0,92-75.3,167.3-167.3,167.3h0
				c-92,0-167.3-75.3-167.3-167.3v0c0-92,75.3-167.3,167.3-167.3h0C276.3,15.1,351.5,90.4,351.5,182.4L351.5,182.4z"/>
		</defs>
		<clipPath id="SVGID_00000159437345478987967780000015726304741462634908_">
			<use xlink:href="#SVGID_00000047752019987147325630000007971302084607220654_"  style="overflow:visible;"/>
		</clipPath>
		
			<linearGradient id="SVGID_00000141414788968060474600000004172773698794694076_" gradientUnits="userSpaceOnUse" x1="-7.4233" y1="159.092" x2="503.0138" y2="568.5737">
			<stop  offset="0" style="stop-color:#ED5C6B"/>
			<stop  offset="0.4748" style="stop-color:#654071"/>
		</linearGradient>
		
			<polygon style="opacity:0.2;clip-path:url(#SVGID_00000159437345478987967780000015726304741462634908_);fill:url(#SVGID_00000141414788968060474600000004172773698794694076_);" points="
			6.5,216.6 180.1,388.1 291,369.3 11.2,95.5 		"/>
		
			<linearGradient id="SVGID_00000109714728374358300760000008437975957608231809_" gradientUnits="userSpaceOnUse" x1="19.2701" y1="-134.6485" x2="532.2817" y2="276.8985">
			<stop  offset="0" style="stop-color:#ED5C6B"/>
			<stop  offset="0.4748" style="stop-color:#654071"/>
		</linearGradient>
		
			<polygon style="opacity:0.2;clip-path:url(#SVGID_00000159437345478987967780000015726304741462634908_);fill:url(#SVGID_00000109714728374358300760000008437975957608231809_);" points="
			35.7,-80.4 251.1,135.2 321.1,74.3 40.4,-201.6 		"/>
		<polygon style="opacity:0.2;clip-path:url(#SVGID_00000159437345478987967780000015726304741462634908_);fill:#EA4771;" points="
			357.2,43 1.9,349.7 87.7,405.6 405.7,122.6 		"/>
	</g>
	<g>
		<defs>
			<path id="SVGID_00000053531716853069887820000009176099780758679975_" d="M350.8,182c0,92.2-75.4,167.6-167.6,167.6h0
				c-92.2,0-167.6-75.4-167.6-167.6v0c0-92.2,75.4-167.6,167.6-167.6h0C275.4,14.4,350.8,89.8,350.8,182L350.8,182z"/>
		</defs>
		<clipPath id="SVGID_00000129168199592704334790000016451155663092002480_">
			<use xlink:href="#SVGID_00000053531716853069887820000009176099780758679975_"  style="overflow:visible;"/>
		</clipPath>
	</g>
	<g>
		<g>
			<path class="st0" d="M153.1,119.4c-1.6-1.3-3.4-2.3-5.6-3.3c-2.1-0.9-4.5-1.8-7-2.6c-1.3-0.4-2.5-0.8-3.5-1.2
				c-1-0.4-1.8-0.8-2.5-1.2c-0.7-0.4-1.2-0.9-1.5-1.4c-0.3-0.5-0.5-1.1-0.5-1.7c0-0.7,0.2-1.2,0.5-1.7c0.3-0.5,0.7-0.8,1.2-1.1
				c0.5-0.3,1.1-0.5,1.8-0.6c0.6-0.1,1.2-0.2,1.8-0.2c0.7,0,1.9,0.1,2.6,0.3c0.7,0.2,1.5,0.5,2.1,0.9c0.7,0.3,1.3,0.7,1.9,1.2
				c0.6,0.4,1.1,0.8,1.6,1.3l0.3,0.3c0.3,0.3,0.6,0.5,0.9,0.7c0.3,0.2,0.6,0.3,0.9,0.3c0.4,0,0.8-0.2,1.2-0.6l5.5-5.8
				c0.3-0.3,0.5-0.6,0.7-0.9c0.2-0.3,0.2-0.6,0.2-0.9c0-0.3-0.2-0.7-0.5-1.1c-0.3-0.4-0.8-0.9-1.3-1.4c-0.5-0.5-1.2-1-1.9-1.5
				c-0.7-0.5-1.5-1-2.3-1.5c-1.9-1.1-3.9-1.9-5.9-2.4c-2-0.5-4.1-0.7-6.3-0.7c-2.9,0-5.5,0.4-7.9,1.1c-2.3,0.7-4.3,1.7-6,3
				c-1.7,1.3-2.9,2.9-3.8,4.7c-0.9,1.8-1.3,3.8-1.3,6.1c0,2.1,0.3,4,1.1,5.7c0.7,1.7,1.8,3.3,3.2,4.7c1.4,1.4,3.2,2.7,5.4,3.9
				c2.1,1.2,4.7,2.2,7.5,3.2c0.6,0.2,1.4,0.5,2.3,0.8c0.9,0.3,1.7,0.7,2.5,1.2c0.8,0.5,1.5,1,2.1,1.6c0.6,0.6,0.8,1.2,0.8,2
				c0,0.7-0.1,1.3-0.3,1.9c-0.2,0.6-0.5,1.1-1,1.6c-0.5,0.5-1.1,0.8-2,1.1c-0.8,0.3-1.8,0.4-3.1,0.4c-1.3,0-2.6-0.2-3.8-0.7
				c-1.2-0.5-2.4-1.1-3.6-1.9c-0.8-0.5-1.5-1.1-2.2-1.7c-0.6-0.6-1.2-1-1.6-1.3c-0.3-0.3-0.6-0.5-0.9-0.6c-0.2-0.1-0.5-0.2-0.7-0.2
				c-0.3,0-0.7,0.2-1.2,0.5l-6.2,5.9c-0.5,0.5-0.8,1-0.8,1.4c0,0.4,0.3,0.8,0.8,1.4c0,0,0.1,0.1,0.1,0.1c0,0,0,0,0.1,0.1
				c0,0,0,0,0.1,0.1c0,0,0,0,0.1,0.1l0.1,0.1c0.4,0.4,0.9,1,1.6,1.6c0.7,0.7,1.5,1.4,2.4,2c2.3,1.7,4.8,3,7.4,4
				c2.7,1,5.4,1.5,8.1,1.5c2.9,0,5.6-0.4,8.2-1.2c2.5-0.8,4.7-2,6.6-3.5c1.9-1.5,3.3-3.3,4.4-5.5c1.1-2.1,1.6-4.5,1.6-7.2
				c0-2.5-0.4-4.6-1.3-6.3C155.9,122.2,154.6,120.7,153.1,119.4z"/>
			<path class="st0" d="M202.4,93.7H192c-0.5,0-0.9,0.2-1.2,0.5c-0.3,0.3-0.4,0.7-0.4,1.1v30.4c0,1.6-0.2,3-0.7,4.2
				c-0.5,1.2-1.1,2.2-1.9,3.1c-0.8,0.8-1.7,1.5-2.8,1.9c-1.1,0.4-2.2,0.6-3.4,0.6c-1.1,0-2.3-0.2-3.3-0.5c-1.1-0.4-2-0.9-2.8-1.7
				c-0.8-0.8-1.5-1.8-1.9-3c-0.5-1.2-0.7-2.7-0.7-4.5V95.3c0-0.4-0.2-0.8-0.6-1.1c-0.4-0.3-0.8-0.5-1.1-0.5h-10.7
				c-0.4,0-0.8,0.2-1,0.5c-0.3,0.3-0.4,0.7-0.4,1.1v30.2c0,4.1,0.6,7.6,1.8,10.4c1.2,2.8,2.9,5.1,5,6.9c2.1,1.8,4.5,3,7.2,3.8
				c2.7,0.8,5.6,1.2,8.6,1.2c3,0,5.9-0.4,8.6-1.1c2.7-0.8,5.1-2,7.2-3.7c2.1-1.7,3.7-4,5-6.9c1.2-2.9,1.8-6.4,1.8-10.5V95.3
				c0-0.4-0.2-0.8-0.5-1.1C203.4,93.9,203,93.7,202.4,93.7z"/>
			<path class="st0" d="M254.5,94.1c-0.3-0.3-0.8-0.4-1.3-0.4H243c-0.4,0-0.7,0.1-1,0.4c-0.3,0.2-0.5,0.6-0.6,1v28.7
				c-3.1-4.9-6.1-9.7-9.1-14.5c-3-4.8-6-9.6-9-14.5c-0.3-0.4-0.6-0.7-0.9-0.9c-0.4-0.2-0.7-0.3-1-0.3h-11.7c-0.5,0-0.9,0.2-1.2,0.5
				c-0.3,0.3-0.4,0.7-0.4,1.1v50.1c0,0.4,0.1,0.8,0.4,1.1c0.2,0.3,0.6,0.4,1.2,0.4h10.2c0.6,0,1-0.1,1.3-0.4
				c0.2-0.3,0.4-0.7,0.4-1.2v-30.8c3.2,5.3,6.4,10.5,9.5,15.6c3.1,5.2,6.3,10.3,9.4,15.6c0.3,0.4,0.5,0.6,0.7,0.9
				c0.2,0.2,0.5,0.3,0.8,0.3h11.4c0.5,0,0.9-0.1,1.2-0.3c0.3-0.2,0.4-0.6,0.4-1.1V95.3C255,94.8,254.8,94.4,254.5,94.1z"/>
		</g>
		<g>
			<g>
				<path class="st0" d="M310.5,152.4c-0.6-0.5-1.4-0.7-2.2-0.7h-70.6c-0.1,0-0.1,0-0.2,0c-0.4,0-0.9,0-1.4,0s-0.9,0-1.3,0h-21.2
					c-1.7,0-3,0.9-3.9,2.6l-16.3,24.1c8.8,0.2,16.5,4.5,21.3,11.1l10.1-15.1c12.4,0.4,34,0.4,34,0.4l0,73.9c0,0.8,0.3,1.6,0.9,2.2
					c0.7,0.6,1.4,1,2.2,1h19.8c0.9,0,1.7-0.3,2.3-1c0.6-0.7,0.9-1.4,0.9-2.2v-73.9h23.3c1,0,1.8-0.4,2.4-1.1
					c0.6-0.7,0.8-1.5,0.8-2.3v-16.7C311.5,153.7,311.1,152.9,310.5,152.4z"/>
				<path class="st0" d="M163.4,177.5c2.6,4,5.3,7.9,8,11.9c4.8-6.6,12.5-11,21.3-11.2l-16.1-24.1c-0.9-1.7-2.3-2.6-3.9-2.6h-23.5
					c-0.2,0.1-0.4,0.2-0.6,0.2c-0.3-0.1-0.6-0.2-1-0.2h-19.2c-0.7,0-1.4,0.2-1.9,0.7c-0.5,0.4-0.9,1.1-1.1,1.9v54
					c-5.8-9.2-11.5-18.3-17.1-27.3c-5.6-8.9-11.3-18-17-27.3c-0.5-0.8-1.1-1.3-1.8-1.6c-0.7-0.3-1.3-0.5-2-0.5H65.5
					c-1,0-1.7,0.3-2.2,0.9c-0.5,0.6-0.7,1.3-0.7,2.1V249c0,0.8,0.2,1.5,0.7,2.1c0.5,0.6,1.2,0.8,2.3,0.8h19.2c1.2,0,2-0.2,2.4-0.7
					c0.5-0.5,0.7-1.2,0.7-2.2v-58c6,9.9,12,19.7,17.8,29.3c5.8,9.7,11.8,19.5,17.7,29.3c0.5,0.7,1,1.2,1.4,1.6
					c0.5,0.4,1,0.6,1.6,0.6h20.8h0.7h0.5h23c0.8,0,1.5-0.2,2.1-0.7c0.6-0.5,1.1-1.1,1.5-1.8l12.1-18.1c-8.3-1.9-15.2-7.7-18.5-15.4
					l-17.6,26.3v-83.5C155.1,165.1,159.2,171.3,163.4,177.5z"/>
				<path class="st0" d="M239,247.8l-21.4-31.9c-3.4,7.6-10.2,13.4-18.4,15.3l12.2,18.1c0.4,1,1.1,1.7,2,2.1
					c0.5,0.3,1.1,0.4,1.6,0.4l24.1,0c0.8,0,1.2-0.3,1.2-1c0.1-0.4-0.1-0.8-0.3-1.3C239.8,249,239.5,248.5,239,247.8z"/>
			</g>
			<g>
				<g>
					<defs>
						<path id="SVGID_00000105399705598377887640000018390509495849919371_" d="M168.7,204.8c0-2.4,0.3-4.6,0.9-6.8
							c0.6-2.2,1.5-4.2,2.6-6.1c1.1-1.9,2.4-3.6,4-5.2c1.5-1.6,3.3-2.9,5.2-4c1.9-1.1,3.9-2,6.1-2.6c2.2-0.6,4.4-0.9,6.8-0.9
							c2.3,0,4.6,0.3,6.8,0.9c2.2,0.6,4.2,1.5,6.1,2.6c1.9,1.1,3.6,2.4,5.2,4c1.6,1.6,2.9,3.3,4,5.2c1.1,1.9,2,3.9,2.6,6.1
							c0.6,2.2,0.9,4.4,0.9,6.8c0,2.4-0.3,4.6-0.9,6.8c-0.6,2.2-1.5,4.2-2.6,6.1c-1.1,1.9-2.4,3.6-4,5.1c-1.6,1.6-3.3,2.9-5.2,4
							c-1.9,1.1-3.9,2-6.1,2.6c-2.2,0.6-4.4,0.9-6.8,0.9c-2.4,0-4.6-0.3-6.8-0.9c-2.2-0.6-4.2-1.5-6.1-2.6c-1.9-1.1-3.6-2.4-5.2-4
							c-1.5-1.5-2.9-3.2-4-5.1c-1.1-1.9-2-3.9-2.6-6.1C169,209.4,168.7,207.2,168.7,204.8z"/>
					</defs>
					<clipPath id="SVGID_00000044135553120401433010000005145746617759090598_">
						<use xlink:href="#SVGID_00000105399705598377887640000018390509495849919371_"  style="overflow:visible;"/>
					</clipPath>
					
						<linearGradient id="XMLID_00000003787588166253937170000008858748732497410728_" gradientUnits="userSpaceOnUse" x1="175.2079" y1="221.0249" x2="195.2111" y2="201.0218">
						<stop  offset="0" style="stop-color:#FFFFFF"/>
						<stop  offset="0.5066" style="stop-color:#CFD1D2"/>
					</linearGradient>
					
						<polygon id="XMLID_62_" style="clip-path:url(#SVGID_00000044135553120401433010000005145746617759090598_);fill:url(#XMLID_00000003787588166253937170000008858748732497410728_);" points="
						209,204.6 176.7,229.4 173.5,235.5 160.4,218.4 187.1,192 					"/>
				</g>
				<polygon id="XMLID_61_" class="st6" points="187.1,192 209.3,204.2 187.1,221.8 				"/>
			</g>
		</g>
	</g>
</g>
</svg>
