<?xml version="1.0" encoding="UTF-8"?>
<svg id="App_Launcher" data-name="App Launcher" xmlns="http://www.w3.org/2000/svg" viewBox="0 0 1024 1024">
  <defs>
    <style>
      .cls-1, .cls-2 {
        fill: #fff;
      }

      .cls-3 {
        fill: #ff5000;
        stroke: #000;
        stroke-miterlimit: 10;
      }

      .cls-2 {
        fill-rule: evenodd;
      }
    </style>
  </defs>
  <rect class="cls-3" width="1024" height="1024"/>
  <g>
    <path class="cls-1" d="m850.26,281.47c-14.82-17.66-37.11-27-64.44-27h-148.7c-57.18,0-104.52,42.01-115.12,102.17-17.96,101.89-35.93,203.77-53.89,305.66-5.43,30.77.32,58.11,16.17,77,14.82,17.66,37.11,27,64.45,27,49.57,0,99.14,0,148.7,0,57.18,0,104.51-42,115.12-102.15,5.06-28.71,10.11-57.42,15.17-86.14-34.91,0-69.82,0-104.73,0-3.82,21.66-7.65,43.33-11.47,64.99-2.24,12.62-9.32,19.02-21.06,19.02h-101.74c-5.22,0-8.91-1.25-10.97-3.7-2.86-3.42-2.57-9.2-1.81-13.46,15.7-89.03,31.4-178.07,47.1-267.1,2.23-12.6,9.32-18.99,21.06-18.99,33.91,0,67.82,0,101.74,0,5.22,0,8.92,1.25,10.97,3.7,2.86,3.41,2.56,9.19,1.81,13.43-3.93,22.29-7.87,44.57-11.8,66.86h104.76c4.96-28.09,9.91-56.18,14.87-84.26,5.42-30.78-.32-58.13-16.18-77.03Zm-271.23,85.73c-16.83,95.47-33.66,190.93-50.5,286.4-6.08,34.42,8.78,53.68,41.4,53.68,41.74,0,83.48,0,125.22,0,32.61,0,54.27-19.27,60.34-53.68,1.78-10.1,3.56-20.2,5.33-30.3h13.06c-1.78,10.1-3.56,20.2-5.33,30.3-7.54,42.67-35.37,67.43-75.81,67.43-41.74,0-83.48,0-125.22,0-40.44,0-59.55-24.76-52.01-67.43,16.83-95.47,33.66-190.93,50.5-286.4,7.54-42.69,35.34-67.48,75.79-67.48h125.22c40.44,0,59.57,24.78,52.04,67.48-1.87,10.56-3.73,21.12-5.6,31.68-4.35,0-8.7,0-13.05,0,1.87-10.56,3.73-21.12,5.6-31.68,6.08-34.41-8.78-53.71-41.39-53.71-41.74,0-83.48,0-125.22,0-32.61,0-54.26,19.29-60.34,53.71Z"/>
    <path class="cls-2" d="m532.55,278.07c.02-.12.04-.23.06-.35-.94-.09-1.88-.18-2.82-.27-.03.17-.06.34-.09.51.92.03,1.9.08,2.85.11m-191.47,172.09c1.02-.17,2.05-.32,3.07-.49,0-.18-.03-.37-.03-.56-1.03.19-2.06.38-3.09.56,0,.17.02.31.05.48m202.14-167.52c1.21.01,2.42.02,3.64.03,0-.06,0-.13.01-.18-1.17-.19-2.34-.37-3.52-.56-.04.24-.08.48-.13.71m-365.34,488.27c1.44-1.03,1.12-2.46,1.35-3.76-.47,1.25-.9,2.49-1.35,3.76m246.81-282.32c-.66-.12-1.31-.25-2.2-.41.06.52.08.91.18,1.53.77-.43,1.4-.78,2.02-1.12m13.98,34.83c.08-.13.14-.27.22-.39-.76-.37-1.54-.73-2.38-1.15-.32,2.1,1.36,1.22,2.16,1.54m-113.65-70.98c.91.06,1.81.17,2.84.25-.73-1.4-1.52-1.46-2.84-.25m-152.03,299.61c1.22-1.29,1.96-2.68,1.63-4.48-.59,1.61-1.11,3.05-1.63,4.48m385.61-502.94c-1.22-.34-2.41-.69-3.62-1.05-.11.21-.21.43-.29.67,1.24.31,2.48.62,3.68.94.07-.2.14-.36.23-.56m-15.68-4.36c1.81.18,3.34.31,5.09.49-1.54-1.24-3.18-.89-5.09-.49m-210.71,209.34c-1.27.25-2.33.43-3.39.62.02.09.04.19.06.28.96.09,1.94.18,3.03.29.11-.42.22-.8.31-1.19m94.71,38.51c1.25.24,2.29.42,3.63.68-1.44-1.9-2.24-2.06-3.63-.68m26.41,15.05c-.25,0-.6.31-.74.56-.08.12.09.52.3.61.23.09.59.08.9,0,.67-.2,1.3-.45,2.22-.75.04.11-.02-.22-.13-.23-.84-.12-1.69-.19-2.56-.2m-26.36,34.31c.16.03.42-.46.79-.83-1.38-.13-2.38-.23-3.6-.34.53,1.45,1.84,1.04,2.81,1.18m-9.87-2.04c1.5.14,3.01.28,4.6.43-1.04-1.46-3.26-1.64-4.6-.43m-166.09,220.13c.2.05.38.08.58.13.68-2.05,1.33-4.08,2.03-6.12-.23-.05-.42-.08-.63-.14-.65,2.05-1.31,4.1-1.98,6.13m287.15-428.55c.13-2.5-2.5-.93-3.53-2.19.41,1.71,1.42,2.27,3.53,2.19m-188.87,116.21c-1.93-.67-2.8,1.27-4.25,1.72,1.95.32,3.72-.42,4.25-1.72m196.76-175.84c1.27,1.81,2.48,1.97,5.13.49-1.86-.19-3.56-.34-5.13-.49m-108.83,210.7c-.33-.14-.67-.37-1.04-.37-.71-.04-1.46.06-2.14.11.56.76,1.13,1.54,1.63,2.23.29-.35.66-.74.97-1.14.22-.28.38-.56.58-.83m-98.39-251.28c.67.23,1.63-.09,2.45-.16-5.06-1.08-6.49-.88-7.42,1.08,1.77-1.29,3.3-1.53,4.97-.91m197.78,50.89c1.79.17,3.3.31,4.84.45-.73-1.48-3.16-1.96-4.84-.45m-13.51,46.88c2.18.21,4.26.41,6.63.63-1.65-1.49-4.47-1.68-6.63-.63m-133.06,120.06c-.58,2.09-.27,2.35,1.68,1.84.63-.16,1.3-.06,1.93-.09-.24-2.2-2.77-.47-3.61-1.75m62.15,60.24c-.64-1.56-3.39-1.3-5.93.73,1.92-.23,3.86-.47,5.93-.73m-289.44,265.6c.26-1.65.67-3.32,1.03-5.04-1.97,1.66-2.31,3.88-3.01,6.05,1.24.44,1.79.16,1.98-1.01m127.7-544.22c2.18.39,4.51.8,7.04,1.25-1.28-2.2-5.51-2.68-7.04-1.25m145.78,257.39c1.11.54,2.27.14,3.55-.66-.53-.73-.48-1.85-1.92-1.32-.74.26-1.54.32-2.63.52.29.48.5,1.2,1,1.46m-271.02,274.07c1.69-2.33,3.92-9.14,3.44-11.29-1.11,3.72-2.25,7.46-3.44,11.29m288.39-248.08c-1.21-1.35-2.45-1.19-3.64-.61-.45.21-.65.88-.97,1.32.52.24,1.08.78,1.53.66.99-.26,1.92-.85,3.08-1.38m-155.61,106.21c.1.08.2.14.28.21.28-.09.54-.21.93-.36-.27,1.28-.51,2.45-.76,3.63.15.01.26.04.37.04.82-2.6,1.66-5.2,2.48-7.82-.18-.05-.36-.1-.55-.17-.91,1.5-1.83,2.97-2.75,4.46m131.92-94.24c2.62.57,5.67.71,8.81.26,1.41-.22,2.78-.23,4.16-.38.54-.06,1.11-.22,1.67-.31-.04-.11-.06-.21-.07-.32-4.99.26-9.96.51-14.57.74m-89.98-83.73c-1.78.26-3.55.55-5.65.87,1.89,2.54,4.09,2.03,5.65-.87m87.4,44.56c-.17-.2-.33-.54-.5-.55-1.31-.14-2.63-.54-3.83-.23-1.96.49-3.48.15-4.54-.76-.45.41-.83.72-1.14,1.03,3.1.33,6.19.68,9.29.97.19.01.47-.31.72-.45m-17.94-255.71c-2.49.27-5,.54-7.47.81,0,.16-.02.3-.04.46,2.2,1.47,6.03.79,7.51-1.27m-102.12,2.93c-.65-1.53-1.63-1.82-2.98-1.58-1.78.32-3.52.61-5.39.94,2.48,1.54,5.44.19,8.37.64m260.73,70.97c1.49,1.31,4.5,1.08,6.5-.47-1.72-1.62-4.05-1.49-6.5.47m-280.31,331.72c-.32,2.24-.43,4.5-.64,6.72.04.02.09.04.16.06,1.07-3.02,2.11-6.04,3.17-9.14-1.52-.1-2.45.59-2.69,2.35m261.35-358.82c1.98.47,4.05.41,6.24-.36-.76-1.11-1.69-2.01-3.07-1.55-1.52.51-2.87.6-4.25-.07-.1,1.2.12,1.75,1.07,1.98m12.2,37.62c-6.62.04-13.27.11-19.38.17,2.47,1.19,18.1,1.23,19.38-.17m-227.7,122.38c.44-.47.85-.96.96-1.47.65-3.31,1.29-6.6,1.79-9.92.11-.84-.37-1.71-.59-2.58-.17.06-.35.12-.52.19.62,4.62-1.33,9.16-1.64,13.79m-16.34-199.49c-2.52.57-4.98,1.17-7.56.79,1.14.56,2.35,1.17,3.57,1.12,3.08-.12,6.14-.53,9.22-.84-1.39-1.11-3.22-1.52-5.23-1.07m67.14,208.8c-1.65-.32-3.42-.37-5.12-.54-.08.14-.16.29-.26.42,2.34,1.31,4.66,2.62,6.94,3.93.52-2.08.07-3.52-1.55-3.82m193.32-148.16c.26-.07.51-.04.8-.06-.21-.22-.39-.64-.62-.64-1.17.03-2.39.13-3.56.25-.48.04-1,.32-1.46.27-2.93-.32-5.79.28-8.67,1.12-.01.17-.02.31-.05.48,2.21-.18,4.42-.36,6.64-.52,1.06-.07,2.34-.49,3.15-.11.83.39,1.21.29,1.91-.16.53-.35,1.21-.45,1.84-.63m-212.77,143.46c-.41.49-1,1.06-2.28.92-1.14-.12-2.48.64-3.73,1.02.01.13.01.24.03.37,1.78-.07,3.54-.18,5.55-.28,0,.15,0,.48.02.82,1.85-.46,3.69-.91,5.54-1.37-.21-.72-.81-1.15-1.86-1.17-1.02-.03-2.01-.18-3.27-.3m-95.22-216.27c1.77-.45,3.49-.83,5.39.4-.1-1.73-.2-3.08-.32-4.73-2.7,1.44-5.06,2.67-7.38,3.91-.02.13-.05.26-.07.38.8.04,1.63.24,2.38.04m-84.82,524.32c-.54,1.31-1.08,2.6-1.21,3.85-.19,2.42-.64,4.74-1.73,7.04-.62,1.29-.62,2.75-.91,4.16.12.05.23.09.35.14.22-.5.48-.99.66-1.49.58-1.76.92-3.59,1.73-5.27,1.01-2.17,2.17-4.24,1.45-6.63.24.32.47.64.74,1.03.32-.19.69-.42,1.43-.86-1.8,0-2.31-.74-2.5-1.96m2.1-469.77c.37-.3,1.03-.6,1.08-.92.24-1.78.55-3.59.45-5.36-.1-1.46-1.1-1.82-2.94-1.5-.05.59-.2,1.21-.11,1.79.22,1.69.51,3.34.82,4.99.1.38.46.66.7,1.01m117.92,311.78c-.12-.05-.23-.07-.34-.12-.37.6-.87,1.2-1.08,1.85-.66,1.92-1.21,3.84-1.71,5.55.3.64.73,1.2.8,1.84.05.67-.27,1.39-.45,2.08-.55,2.72-1.09,5.44-1.64,8.15,1.04-1.32.95.46,1.46.25.41-1.96.79-3.89,1.21-5.94-.37.16-.63.25-1.16.49,1-4.88,1.93-9.52,2.91-14.16m72.46-148.93c-1.41.12-2.78.11-4.17.23-.44.04-.91.36-1.66.66,1.68.58,2.88.98,4.09,1.4,1.57-.78,3.26-1.63,4.84-2.42.06-.33.14-.66.2-.99.39.1.86.1,1.17.29.27.19.35.58.5.87.91,1.51,2.28,1.62,3.91.38-1.26-1.87-6.95-2.92-8.65-1.48.4.08.72.18,1.04.26-.4.47-.83.75-1.27.8m145.56-171.37c-.05.2-.12.38-.18.58,1.17.31,2.32.77,3.53.86,1.12.06,2.3-.27,3.45-.5,2.65-.56,5.26-.35,7.8.25.04-.13.08-.22.1-.35-1.2-.34-2.39-.7-3.58-1.07,0-.11,0-.2-.02-.32.97-.17,1.95-.33,2.98-.51-3.5-3.02-7.96-.81-12.01-.95,1.49.16,2.95.3,4.56.45-2,2.7-4.42,1.51-6.62,1.56m-213.5,302.84c.31-1.13.48-2.25.69-3.36-.12.17-.21.36-.34.52.29-.69.33-1.53.41-2.29.12-1.49.17-2.97.25-4.47.05-.48.15-.95.22-1.43-.09,0-.18-.01-.28-.02-.79,3.8-1.57,7.61-2.33,11.35-.57-.3-1.03,0-1.19.77-.18.77-.3,1.57-.38,2.36-.21,3.27-.15,6.53-1.67,10,1.67-.92,2.27-2.18,2.73-3.54.84-2.5,1.75-4.97,2.57-7.46.12-.32-.05-.76-.19-1.07-.24-.44-.42-.9-.5-1.37m-11.98,34.94c-.72,1.09-1.39,2.22-1.9,3.39-1.76,3.99-2.74,8.32-6.04,11.74,2.62.57,5.18-.92,5.99-3.66,1.24-4.12,2.32-8.27,3.58-12.82-.64.51-1.29.84-1.63,1.35m13.81-374.68c-.6,0-1.14,0-2.16,0,1.45.9,10.97,1.32,12.79.47-1.11-.3-2.22-.62-3.34-.94.87-.24,1.68-.24,2.45-.07,1.25.26,1.75,0,2.14-1.39-1.34.15-2.68.3-4,.44,0-.09,0-.18,0-.3,1.31-.31,2.68-.63,4.04-.94-.01-.15,0-.28-.02-.43-3.77-.36-7.52-.75-11.32-1.03-.37-.03-.82.61-1.28.95.09.1.18.21.26.31.47-.13.98-.26,1.89-.5-.82.7-1.3,1.11-1.88,1.59-.3-.65-.51-1.13-.83-1.78-.49.45-.83.76-1.01.91.92.84,1.74,1.59,2.57,2.35-.09.11-.19.23-.31.35m-45.44,7.74c1.53.46,3.4-.35,4.76-1.95-1.91-.26-3.15.95-4.76,1.95m-12.19-3.95c-.63-.69-1.18-1.29-1.49-1.66.78-1.41,1.51-2.67,2.17-3.96.58-1.25,1.72-2.05,3.23-2-.21.54-.38,1.07-.71,1.95,1.49.07,2.92.33,4.35.16,2.14-.3,4.33-.79,6.46-1.4,2.08-.62,4.11-1.06,6.18-.74.31.04.57.17.82.34-3.06.08-6.07.37-8.95,2.32,2.13-.16,4.11-.53,6-.4,3.1.22,6.2.58,9.21,1.18,3.77.75,7.58.55,11.44.13.65-.08,1.46.05,1.92.39,1.68,1.19,3.51,1.91,5.66,2.27,1.74.25,3.45.74,5.19,1.12-.05.16-.09.31-.14.47-4.13-.4-8.24-.95-12.41-1.16-4.86-.23-9.78-.44-14.71.71-3.35.76-6.48,2.46-8.52,4.52.47.96,1.24.74,2.02.25.78-.5,1.47-.64,2.37.37-2.92.35-5.48.65-8.23.98.13-1.48-1.02-1.65-2.39-1.65-.94.01-1.9-.08-2.83-.23-1.06-.16-1.3-.9-.75-1.78.59-.89,1.4-1.62,2.02-2.47.43-.54.94-1.14,1.02-1.73.23-1.61-.71-2.22-2.25-1.49-1,.46-1.93,1.13-2.98,1.74-1.55-1.09-2.16-.84-3.71,1.76m43.01,345.04c-.2.58-.37,1.12-.55,1.61.01,1.3-.12,2.77-.36,4.42,0,0,.01,0,.02,0,1-1.95.99-3.93.89-6.04m-77.72,179.87c-.09.42-.22.84-.36,1.25.53-.46,1.03-.93,1.53-1.41-.36-.38-.72-.72-1.05-1.04.02.34,0,.68-.12,1.2m-3.48,4.17c.27-1.1.52-2.19.77-3.28.69-2.92-2.48-.32-6.46,3.39-.02.13-.06.24-.08.37.38-.01.7,0,1.02-.02-.15.51-.31.98-.42,1.43-.69,2.93,1.82,1.15,5.18-1.88m-8.92.77c-.33-.9-.54-1.91-.68-3.11-.98,1.4-2,2.81-3.01,4.24-.05.06-.05.09-.08.12,0,0,0-.02-.02-.02-.16.27-.36.54-.56.81.95.03,2.51-.81,4.35-2.05m-3.59-6.7c.45-.51.89-.97,1.31-1.45-.03-.33-.09-.66-.12-.99-.17.03-.38.03-.53.04-.2.8-.44,1.6-.65,2.4m-9.87-17.15c.62-3.03,1.27-6.05,1.77-9.09.46-2.57.85-5.17,1.27-7.73.02-2.33-.2-4.14-.91-4.87-.75,3.16-1.67,6.28-2.98,9.36.43,4.94.69,9.37.86,12.33m-2.76-45.84c-.79,1.59-1.59,4.06-1.78,5.55.76,2.78,1.41,6.79,1.98,11.28.29-2.48.4-4.96.3-7.45-.15-2.92-.33-6.07-.5-9.38m22.92,64.84c1.87-1.29,3.49-2.3,4.57-2.48-.29-.26-.52-.46-.64-.54-.83-.52-1.68-1.01-2.48-1.45-.21,1.61-.69,3.36-1.46,4.48m.24-4.08c-.97,2.04-2.04,4.07-3.04,6.11.9-.64,1.75-1.27,2.58-1.84.04-.55.02-.95.16-1.21.76-1.32.82-2.61.47-3.97,0-.02,0-.04,0-.06,0,0-.01,0-.02,0,0,.33,0,.69-.15.97m-3-.54c-.13,1.03-.13,2.08.14,3.18.04.21.14.4.24.67,1.67-1.24,1.49-3.07,2.19-4.57-.48-.26-.99-.53-1.48-.77-.35.47-.7.95-1.09,1.5m-8.15,6.85c.13-.29.25-.56.4-.86.6-.94,1.24-1.92,1.52-2.94,0-.01,0-.02,0-.04-.63.81-1.31,1.66-2.05,2.54-.17.62-.32,1.25-.47,1.88.2-.17.41-.38.59-.59M464.43,232.5c.93.05,1.87.11,2.82.18-.86-1.06-1.45-1.12-2.82-.18m45.63,40.34s.06.37.21.39c1.79.26,3.57.4,5.32-.48,0-.17,0-.33.01-.5-1.84.21-3.64.4-5.55.59m15.03,18.94c1.69,1.65,3.88,1.38,6.27.83-.87-1.93-3.25-2.2-6.27-.83m-225.65,273.44c.14-.86.11-1.33-.15-1.57-.5,1.84-1.31,4.51-2.28,7.29,0,.89,0,1.78,0,2.67.13,0,.23,0,.38,0,.12-.14.29-.26.32-.4.61-2.66,1.29-5.32,1.73-8m-4.25,15.52c.97-1.3.96-2.54.65-3.83-.24,1.13-.45,2.3-.72,3.6.02.08.03.15.07.23m1.8-13.05c.57-1.63,1.06-3.12,1.5-4.27-.38,0-.85.05-1.52.17.02,1.36,0,2.72.02,4.1m-46.9,160.1c.79-2.45,1.62-4.89,2.47-7.32-.35-.88-1.31,2.3-2.47,7.32m104.69-277.5c1.72,1.95,4.3,1.99,6.69,2.39.1-.16.23-.33.33-.5-.94-.49-1.8-1.18-2.82-1.44-1.33-.33-2.74-.32-4.2-.46m12.71,3.37c1.21.79,2.44,1.58,3.65,2.37.22-.17.41-.32.65-.47-.27-.8-.26-2-.85-2.3-.84-.45-2.13-.28-3.18-.37-.09.27-.19.52-.27.78m41,30.97c.46.68.69,1.09.8,1.2,1.06-.15,1.83-.28,2.59-.39-.1-.15-.34-.41-.57-.69,1.67-.22,1.8-.3,1.85-1.56-1.17.9-2.31,1.28-2.91-.22-.52.7,0,1.98-1.76,1.66m7.23,17.3c-.04.24-.12.47-.2.69.84-.08,1.68-.16,2.52-.23-.79-.72-1.55-.7-2.32-.46m121.21-210.54c.44.25.83.72,1.29.76,1.64.08,3.35.16,5.03,0,1.39-.14,2.84-.65,4.27-.91.33-.07.72.26,1.08.39-.03.07-.08.13-.13.19,2.21-.05,4.39-.08,6.74-.14-5.74-3.26-11.96-1.63-18.28-.3m18.78,2.56c1.23-.06,2.33-.11,3.79-.18-1.78-1.28-2.67-1.23-3.79.18m-138.19,186.22c1.88.18,3.51.33,5.46.53-2.26-2.09-3.52-2.23-5.46-.53m1.64,22.32c1,1.44,2.04,1.61,4.23.58-.78-2.77-2.85-.33-4.23-.58m7.5-1.03c1.17,1.41,2.41,1.73,4.27,1.11.98-.34,1.91-.8,2.89-1.17.85-.33,1.25-.15.86.64,1.7-.14,3.3-.31,5.19-.47-4.22-3.09-8.68-1.11-13.21-.11m-1.46,44.76c.34.32.59.67.98,1.12-1.49.54-2.69.69-3.94.21-1.11-.43-2.3-.68-3.37-.98-.24.21-.35.27-.38.35-.59,2.01-.61,2.14-2.78,2.03-1.53-.07-3.06-.44-4.49-.92-1.59-.57-2.8-.5-4.41.84.26.34.5.68.74,1.02.19.31.41.62.79,1.17-1.46-.14-2.62-.24-3.82-.36-.04.15-.11.3-.16.45,1.24.53,2.52,1.05,3.76,1.56-.07.07-.1.14-.15.21-1.36-.24-2.71-.48-4.17-.73-.11.44-.27.96-.44,1.6-.27.02-.54.07-.78.06-26.72-1.85-53.75,2.47-80.64,5.91-3.36.41-10.7,1.68-14.07,2.17-2.31.34-4.61.5-7.04.73-.3,2.52-.63,4.98-.9,7.45-.16,1.4-.29,2.78-.48,4.14,1.27-3.84,2.13-6.49,1.6-4.67.43-.73.86-1.48,1.22-2.23-.73,2.21-1.88,5.59-3.03,9.09-.35,3.2-.67,6.4-1.06,9.62-.46,4.38,9.62-25.6,9.04-21.23-.82,6.28-2.48,12.43-4.66,18.53-.25.74-.97,1.66.11,2.33.16.14.05.76-.02,1.13-1.29,6.41-2.6,12.81-3.93,19.21-.09.42-.43,1.04-.7,1.38-3.7,4.34-6.27,9.13-8.14,14.15-1.64,9.17-3.26,18.37-4.9,27.54.2-.08.3-.13.55-.22-.85,4.11-.03.92-1.22,4.62-.1.27-.23.54-.32.83-.89,4.79-1.79,9.61-2.74,14.4-4.04,19.87-9.87,37.41-14.81,57.18-.47,1.92-2.31,3.68-3.72,5.4-.29.38-.49.2-.64-.3-.78,3.97-1.57,7.75-2.36,11.53-.16-.03-.35-.04-.55-.06.46-2.99.8-5.97,1.39-8.95.18-.88.95-1.71,1.5-2.64-.24-1.17-.18-3.91-.08-7.03-1.25,5.66-2.92,11.19-5.42,16.56-.37.83-.94,1.59-1.4,2.37-.18-.05-.34-.1-.52-.15.2-1.88.35-3.76.7-5.62,1.25-6.49,2.82-12.95,3.92-19.45.28-1.71.46-3.42.62-5.13-1.42,1.97-3.27,6.04-4.78,9.34-4.37,18.4-9.29,36.67-16.21,54.63-.17-.01-.33-.04-.53-.05.17-1.68.24-3.36.45-5.03.53-3.83,1.16-7.67,1.98-11.49-.29-8.03,6-30.37,6.59-35.02-.1,0-.2-.01-.3-.02-.11.3-.24.6-.31.89-.64,2.98-1.23,5.92-1.87,8.88-.39,1.75-1.34,3.28-3.1,4.66.87-5.52,2.59-10.91,3.87-16.32-.11-2.75.01-6.58-3.01-1.34-4.27,7.55-10.23,26.08-14.32,37.82-1.75,7.59-3.18,15.2-5.1,22.76-1.36,5.43-3.22,10.78-5,16.13-.46,1.34-1.4,2.57-2.36,3.76.45-4.62,2.07-8.99,4.18-13.65-.91.46-1.54.76-2.61,1.3,3.94-9.53,1.47-11.6-2.19-13.17-.56,1.78-1.14,3.56-1.66,5.31-.04.12-.04.33-.12.38-1.85.9-1.91,2.94-3.19,4.23-.05.05-.16.04-.68.21.19-.84.18-1.56.49-2.19,1.32-2.86,2.34-5.77,3.24-8.71-2.31-.94-4.71-2.09-6.23-4.86-4.7,4.49-9.64,9.21-10.49,8-3.58,5.03-6.28,8.81-6.15,8.6.72-1.21.75-2.43,1-3.71.51-2.67,1.2-5.33,1.89-7.97-3.28,3.77-5.8,6.4-5.84,5.6-1.54,1.38,2.18-3.39,6.87-9.07.03-.18.1-.37.18-.56-.02.13.07.15.05.26.94-1.14,1.91-2.3,2.89-3.45.05-.48.08-1,.15-1.49-.14-.06-.3-.11-.46-.16-.74,1.22-1.51,2.47-2.25,3.66.64-3.05,1.3-6.21.43-9.35-1.85.98-.53,2.78-1.78,3.9.05-2.41.11-4.79.16-7.22-1.75.47-3.27,2.85-3.26,5.02.02.31.28.61.45.92.09,1.73.17,3.57.33,5.42.14,1.53-.16,2.88-1.76,4.16.2-2.69,1.48-5.24.38-8-.35,1.74-.61,3.11-.93,4.49-.11.4-.38.99-.68,1.08-.32.11-.9-.2-1.11-.48-.2-.26-.13-.77.02-1.15.49-1.27,1.05-2.52,1.54-3.79.1-.22.08-.46.19-.65,1.6-3.08,1.78-6.27,2.24-9.52.46-3.1,1.05-6.21,1.66-9.32-.18-2.47-.43-6.63-.82-12.85-.52,1.24-1.13,2.46-1.82,3.66.09-.59.18-1.19.3-2.2-1.23,2.14-1.28,4.32-3.17,5.97.46-3.61.83-6.95,1.28-10.31-.17-.01-.34,0-.49-.01-3.67,10.97-5.66,22.15-8.31,33.29.37-3.11.64-6.2,1.17-9.3,1.21-7.09,3.31-14.05,5.56-20.97.35-1,.62-1.98.9-2.96-2.95,3.8-6.3,7.63-7.54,5.76.41-4.51.82-8.47,1.2-12-1.35,4.61-2.34,7.66-2.18,5.82-2.55,4.73-1.33,10.31-3.93,15.41,1.55-5.66.67-11.24,2.04-16.76,1-4.12,2.29-8.21,3.47-12.31.78-2.71,5.41-22.11,8.72-37.58-.12-2.59-.25-5.23-.37-8-.1-1.73-.18-3.85-.29-6.18-3.18,13.9-9.47,41.26-9.75,43.14-.14.88-.04,1.89.31,2.69.37.86.1,1.42-.37,2.16-1.52,2.42-2.93,4.86-4.34,7.3-1.33,6.32-2.61,12.63-3.93,19.08-1.26-.7-1.18.29-1.34.96-1.31,6.16-2.4,12.36-3.94,18.5-1.12,4.28-2.82,8.46-4.27,12.68-.1.25-.31.46-.55.87,2.1-11.64,6.34-22.9,6.97-34.49-.57,1.7-1.17,3.42-1.59,5.14-1.47,5.92-2.81,11.87-4.28,17.79-.93,3.83-2.22,7.58-4.45,11.05-.38.56-.84,1.11-1.46,1.99-.09-3.15.16-5.96,1.14-8.71.99-2.73,2.15-5.43,3.27-8.22-2.86-.58-.98-3.57-1.49-6.67-.51-3.06.67-6.28,2.63-8.96,2.92-4.06,3.06-8.52,2.77-12.58-.94,1.6-1.93,3.35-2.92,5.08-.21-.07-.37-.14-.56-.21.39-2.16,1.11-4.24,2.3-6.23.87-1.42,1.56-2.86,1.27-4.47-.03-.17-.14-.29-.39-.88-.79,1.07-1.61,1.85-1.9,2.74-.44,1.41-.52,2.9-.82,4.35-.17.82-.44,1.64-.83,2.43-.34-5.55.23-7.79,2.68-10.38-1.7-.16-1.83-1.11-1.57-2.58,3.3-18.38,15.38-73.42,18.64-91.81,2.25-12.62,4.52-25.21,6.77-37.81,10.48-66.93,14.05-160.96,18.32-225.22-9.7-4.44-19.74-8.87-19.06-13.53.23-1.5.48-2.99.74-4.66-.66.03-1.14,0-1.62.13-1.13.31-1.74-.05-1.67-1.14.23-7.79.48-15.6,1.42-23.43.02-.09.01-.17,0-.26-2.46-.92-4.31-1.53-5.15-1.55.48-.6.95-1.19,1.39-1.79,1.33.13,2.67.2,3.99.28.76-9.21.35-18.35.85-27.58.02-.11.06-.25.21-.76.4.68.67,1.11,1.13,1.88.27-.68.61-1.2.65-1.66.32-2.81,1.14-5.56,3.42-7.58,2.28-2.05,4.25-4.47,4.48-7.51,1.91-.07,3.81,0,5.67-.23,4.55-.55,48.48-3.47,50.49-7.67.53-1.09.56-2.37,1.05-3.49.86-2.07,1.95-4.07,2.89-6.12.4-.9.91-1.83,1.08-2.78.29-1.54.58-3.15-1.26-4,0-.13,0-.26,0-.39,1.3-.46,2.57-1.16,3.86-1.31,1.19-.16,2.04-.5,2.91-1.28.32-.29.8-.59,1.16-.6,9.24.07,18.34-2.34,27.52-3.92,2.6-.45,5.18-.71,7.8-1.1.54-.07,1.06-.39,1.51-.58,1.07,0,2.15-.04,3.39-.06.03.15.14.49.3,1.13-.54-.35-.82-.54-1.3-.81-.22.5-.36.88-.63,1.51,1.92.38,3.71.78,5.52,1.07.71.13,1.38.13,2.06.22,6.73-.98,13.51-1.88,20.24-2.68.17-.03.33-.05.48-.06,5.76-.69,11.49-1.36,17.24-1.96.09-1.74.3-3.47,1.52-5.14,1.2,1.58,2.33,3.13,3.46,4.67,6.65-.65,13.29-1.26,19.95-1.79.35-.28.72-.54,1.2-.92.09.21.27.48.46.79,22.87-1.83,45.76-3.03,68.64-3.89.21-.13.4-.25.57-.33.81.08,1.59.15,2.38.22,2.17-.09,4.4-.17,6.62-.26,2.94-.09,5.87-.05,8.83.04-.16-.38-.29-.67-.42-.94,2.98-.59,9.19.35,11.83,1.66,8.66.81,17.31,2.08,25.86,3.31,5.31.75,9.9,2.99,13.05,6.9,3.5.17,6.98.32,10.47.55,4.88.34,9.93-.62,14.69.58-3.08,1.25-6.17-.25-9.29,1.13,2.94.11,5.88.39,8.82.3,3.94-.11,7.41.94,10.61,2.71.29.15.46.46.68.7-.06.15-.11.29-.16.45-1.93.11-3.89.2-5.86.35-2.14.11-4.23.26-6.35.35-1.76.08-3.55.01-5.28.15-2.19.2-4.32.75-6.27,2.14,1.44-.07,2.88-.17,4.35-.18.3,0,.58.34,1.05.65,5,.48,10.27,1.48,15.6,1.37,6.5-.14,12.87.27,19.2.97,1.53.18,2.94.91,4.73,1.48-3.01,1.31-5.76,1.86-8.56,2.11-4.62.46-9.01-.33-13.41-1.09-5.35-.93-10.73-1.74-16.13-2.39-.79-.09-1.85,1-2.94,1.65-3.92-1.59-8.14.28-12.34,1.01.98.11,1.98.25,2.99.28.99.03,2.05,0,3.05-.06,3.91-.25,7.83-.63,11.73-.72,2.32-.04,4.62.4,6.87.85-.68.1-1.39.09-1.99.34-.6.22-1.1.7-1.66,1.09.07.15.11.33.16.49,1.72-.05,3.45-.07,5.17-.16,1.76-.08,2.73.47,3.2,2.04-5.2.53-10.32,1.45-15.32.23-.43-.11-.92-.21-1.25-.44-2.01-1.48-4.34-1.25-6.74-.6-3.33.88-6.48,2.31-9.55,3.86,0,.17.02.34.02.5,3.07-.08,6.13-.06,9.2-.25,3.11-.19,6.17-.48,9.12.64-.09.18-.15.31-.23.45-.08.12-.17.21-.19.25,1.64.15,3.34.32,5.39.52-1.86,1.37-3.46,1.81-5.21,1.62-1.48-.14-3.04-.65-4.49-.42-3.48.57-6.89,1.5-10.34,2.28.02.2.04.37.09.56.78-.17,1.62-.24,2.37-.54,1.94-.79,2.35-.73,3.41.79-.68.21-1.37.4-2.36.71.61.5.9.77,1.35,1.15-1.99.21-4.01-1.6-5.75.88,2.75.27,5.4.52,8.19.78-.04-.8.17-1.02,1.14-.7,1.27.44,2.76.64,4.21.72,2.58.16,5.23.16,7.85.31.32,0,.56.45.68.83-6.77-.03-13.35-1.45-20.15,1.61.5.06,1.01.11,1.51.14.54.06,1.07.11,1.58.17,0,.15,0,.28,0,.43-2.55.4-5.09.94-7.66,1.17-3.66.32-7.33.25-10.97,1.4-.42.12-.78.26-1.5.51,4.44,1.18,8.69,1.39,13.1.43,3.83-.83,7.53-.94,11.08.18.76.26,1.44.67,2.17.97.32.13.86.27,1.05.11.3-.21.57-.77.47-1.04-.13-.32-.63-.68-.99-.66-.55.06-1.14.39-2.04.71.13-.64.1-1.49.39-1.64.74-.35,1.66-.55,2.46-.53.41.01.81.61,1.09,1.02.92,1.27,1.4,1.3,2.5-.01.15-.18.27-.35.49-.61,1.36,3.41,4.32,3.84,7.71,3.3,5.35-.83,10.82-.33,15.24,2.1,1.38.78,2.67.28,4.12-.6-.46-.18-.77-.31-1.12-.47.07-.07.15-.17.18-.17.53.11,1.23.05,1.61.35,1.04.89,1.05.97,2.74.45-.13-.34-.26-.67-.38-1.03.16-.04.29-.13.42-.12,6.74.29,13.48.61,20.22.84,2.63.09,5.31-.22,7.9-.1,3.62.14,7.19.5,10.74.83.76.07,1.43.49,2.14.74-.06.15-.13.3-.2.47-2.6-.25-5.22-.51-8.27-.8.46.9.71,1.47,1.13,2.38-6.51-1.72-12.82-2.96-19.46-2.21-6.51.75-12.84,2.76-19.16,5.02,1.88.19,3.73.37,5.81.57-.28.45-.47.75-.68,1.1,4.14.55,8.31.32,12.49.04,5.2-.34,10.25.38,15.22,1.38.36.09.61.58.75,1.16-10.35-1.87-20.58.03-31.15,2.57.72.59,1.25,1,1.66,1.34-1.31.39-2.72.83-4.09,1.25.01.13.03.26.04.39.76.06,1.52.13,2.28.2,0,.13.01.24.03.35-1.76.51-3.51,1.03-5.27,1.56.52,1.48,1.54,2.09,3.04,1.68.32-.09.55-.48,1-.89.76-.26,1.85-.59,2.87-1.02,1.47-.59,2.1-.41,2.86.89-1.25,1.13-3.4-.18-4.43,1.9,1.05-.11,2.03-.21,3.35-.36-.64.64-1.07,1.07-1.44,1.46-1.02-.36-1.92-.71-2.84-1.01-1.49-.48-3-.13-4.61.09-3.73.52-7.52.77-11.23.77-4.99,0-9.89-.32-14.89.77-1.27.28-2.54.67-3.81,1.14,5.81,1.29,12.22-.2,18,1.89-.38.33-.66.56-1.02.87,1.12.36,2.09.68,3.1,1.02-.04.22-.06.46-.1.66-1.16.22-2.28.49-3.43.63-1.02.14-2.09-.17-3.32.72-4.43-.64-9.03.2-13.4,3.14-.27-.26-.52-.55-.8-.8-.67-.64-1.26-.74-2.06.19-.53.63-1.38,1.02-2.09,1.5,1.82.83,3.91.57,6.05.37,1.55-.15,3.11.03,4.61.23.44.05.79.63,1.3,1.04-.41.2-.54.32-.64.31-3.15-.69-6.26.27-9.38,1.01-2.38.58-4.78,1.1-7.21,1.87,2.44-.11,4.91-.29,7.34-.3,1.31.02,2.62.35,3.92.53-.03.17-.06.34-.09.51-.31.04-.57.13-.85.11-.78-.04-1.56-.11-2.33-.2-2.52-.29-4.97-.25-7.58.21-3.03.55-6.11.27-9.17.34-2.24.05-4.52-.11-6.79.19-1.39.2-2.74,1.14-4.14,1.73-.46.17-.92.34-1.38.37-1.86.11-3.72.13-5.32,1.09,2.66.26,5.37.5,8.08.79,1.62.17,3.18.28,4.66-.95.22-.15.64-.23.89-.18.55.17,1.26.29,1.55.68,1.29,1.72,3.04,1.38,5.05,1.13,2.75-.35,5.57-.28,8.33-.31.38,0,.67.45,1.05.63.3.19.66.4,1,.4,2.3-.06,4.61-.4,6.84-.23,3.31.25,6.59.85,9.82,1.54-6.23.4-12.4.06-18.6,1.57,3.75-.09,7.51-.23,11.25-.25,3.4-.02,6.39.87,8.59,3.49-3.28,1.44-5.75-.81-8.76-.65-.28,1.57-1.39,2.11-2.93,2-2.76-.19-5.51-.27-8.23-.58-2.06-.24-4.02.03-6.05.97.94.43,1.78.86,2.84,1.37-1.59.72-2.76.62-3.82-.08-1.36-.87-1.84-.76-3.06.64,1.11,1.89,3.7.17,5.17,1.19-.05.15-.09.29-.12.46-1.25-.12-2.52-.18-3.74-.39-1.2-.21-2.1-.04-2.65,1.15-.12.25-.36.42-.59.7-5.64-2.38-11.74-3.21-18.03-3.28-5.39-.06-10.83.1-16.27.42-25.7,1.53-51.4,5.28-77.12,7.71-9.26.86-18.49,1.6-27.73,2.12-6.62.37-17.39.56-23.95.22-.3,0-.58,0-.9,0-.16.99-.31,2.05-.31,3.32-.39,22.15-13.89,78.76-18.68,100.84-.18.91-.36,1.79-.52,2.62,1.74-.27,3.47-.52,5.19-.79.02.07.05.17.05.25-.61.36-1.24.75-1.85,1.11,0,.06.04.1.05.15,1.95-.42,3.88-1.03,5.81-1.24,2.84-.32,5.55-.93,8.21-1.95,1.51-.56,3.99-.8,5.54-.84,2.2-.03,3.95-.87,5.47-2.45-.01-.13-.02-.28-.05-.43-1.28.21-2.56.47-3.82.6-1.19.16-2.39.33-3.55.22-.55-.06-.98-.72-1.39-1.25-3.52-.34-7.5.27-9.59,1.33.79-1.15,2.09-2.04,3.8-2.35,2.35-.45,4.47-.02,6.68.56,1.87.46,4.07.14,6.1-.02,1.51-.13,3-.5,4.46-.91,5.67-1.68,11.24-1.88,16.74-.72.22.03.42.05.74.07.17-.67.34-1.28.5-1.87,2.33-.02,4.63.12,6.95-.14,1.32-.13,2.58.38,3.24,1.39,2.74,4.12,7.25,5.11,12.27,4.88,2.48-.12,4.94-.53,7.41-.8,0-.11,0-.2-.02-.31-.81-.32-1.61-.64-2.42-.97.03-.17.06-.33.11-.49,1.38-.16,2.77-.36,4.15-.45,4.27-.25,8.06,1.1,11.77,2.62,3.77,1.56,8,1.88,12.24,1.75,1.27-.04,2.48.21,4.05.36-2.13,1.63-4.32.01-6.3,1.45,2.19.86,4.34,1.45,6.63.84,2.64-.72,4.35.32,5.99,1.77.66.59.17,1.03-.57,1.18-2.84.56-5.71,1.05-8.55,1.64-1.7.36-3.38.84-5.02,1.41-.3.11-.59.39-.85.68,2.21.02,4.4.03,6.62.06.9.02.68.27-.31.7,7.32.34,14.51,1.5,21.93,2.18-.46.28-.85.59-1.35.83-3.74,2-7.45,1.79-11.24.92-3.82-.89-7.7-1.58-11.76-2.38.04.71.08,1.04.12,1.51-.41-.21-.75-.42-1.14-.64-.28.39-.52.72-.82,1.13-.65-.78-1.37-1.14-2.17-1.19-1.66.59-3.58,1.23-5.55,1.97,2.64.67,5.26.63,7.94.11,2.74-.51,5.48-.95,8.22,0-1.26.34-2.72.29-3.12,2.12,1.23-.07,2.38-.09,3.59-.21,1.61-.17,2.15.13,2.71,1.86-2.23.22-4.4.45-6.59.65-3.36.31-6.78.44-10.14.98-2.12.34-4.2,1.32-6.27,2.01.03.24.04.5.06.75,1.91-.11,3.8-.26,5.69-.33,2.08-.08,4.13-.1,6.17-.07.66.01,1.01.35,1.15,1.14.09.64,1.08,1.07,1.69,1.58.9.75,1.8,1.5,2.82,2.31-.82.28-1.44.47-2.37.78.93.47,1.55.79,2.15,1.1-.04.13-.08.25-.14.38-1.83-.89-3.8-.58-5.81-.18-1.5.32-2.56-.4-3.35-1.61,1.11.11,2.21.21,3.49.34-2.09-2.48-6.41-2.69-8.47-.61.63.06,1.21.29,1.47.1.65-.51,1.11-.55,1.67-.09,1.07.82,1.17.99.85,2.27-.47,0-.94,0-1.58.02.4-.35.72-.58,1.03-.8-.07-.12-.13-.23-.2-.33-1.34.79-2.69,1.58-4.03,2.37,1.67.32,3.07.6,4.48.87-.73.32-1.48.62-2.23.96-.5.26-.96.54-1.6.87.51.59.93,1.12,1.4,1.71-2.02,1.2-4.05,1.37-6.12,1.17-2.16-.19-4.16.17-6.31,1.5,2.68,1.48,5.41,2.31,8.41,1.24,3.32-1.15,6.35-1.39,9.2.5.12-.58.2-1.01.31-1.54-.27-.07-.59-.15-.93-.23-.04-.12-.07-.25-.11-.34.7-.34,1.59-1.04,2.01-.86.63.25.93,1.12,1.45,1.86.37-.39.81-.87,1.32-1.39.32.75.6,1.56,1.02,2.28.91,1.52,2.23,1.92,4.08,1.32.9-.31,1.77-.67,2.71-.9,1.54-.41,3-.29,4.41.44,1.11.6,2.28,1.11,3.54,1.51.65.23,1.47.18,2.21.25.06-.12.12-.23.18-.36-.53-.41-1.01-.83-1.85-1.5.72.09,1.23.04,1.42.23,1.27,1.17,1.45,1.12,2.24-.55,5.08.33,10.16-.36,15.27-1.18,3.96-.61,7.84-.73,11.76.65-.77.13-1.32.24-1.86.32-.61.07-1.23.04-1.82.19-.47.13-.89.48-1.18.62-4.61.35-9.15.66-13.7,1.01-.42.03-.83.15-1.22.3-2.28.97-4.55,1.96-6.78,2.97-1.35.63-2.67,1.32-4.03,1.96.04.11.07.23.09.34,1.25.13,2.51.25,3.8.38-.9,1.44-1.26,1.58-2.36.82-.98-.7-1.44.06-1.99.64,0,.15-.02.29-.03.46,2.23-.07,4.46.01,6.67-.24,3.22-.35,6.37-1.01,9.6-1.44,2.48-.34,4.92-.21,7.24.54.22.87-.22,1.32-1.05,1.37-2.07.15-4.2.06-6.24.34-4.76.67-9.42,1.9-14.12,3.89.63.56,1.12,1.01,1.62,1.45-1,.45-2,.9-3.39,1.52.83.21,1.31.31,1.76.42,0,.09.02.19.04.28-.67.18-1.38.27-1.99.55-.49.22-1.14.61-1.22.97-.19.84.88,1.98,1.53,1.76.3-.09.47-.66.68-.97.65-.25,1.48-.41,2.11-.87,1.34-.91,1.52-.93,2.05.38-1.21.69-2.44,1.37-3.61,2.05-.04.03-.09.09-.13.08-2.82-.53-5.38,1.55-8.18,1.43-2.91-.11-5.84.03-8.79.24-2.51.18-4.96.76-7.3,2.42,4.28.86,8.88-.62,12.95,1.5-.45.1-.92.19-1.35.31.05.13.08.26.13.42,1.47.16,2.18.84,1.84,2.28-2.19.2-4.33.4-6.49.62-2.75.27-4.91,1.64-6.79,3.66-.3-.3-.54-.54-.8-.78-.73-.72-1.4-.76-2.1.32-.29.48-.85.85-1.35,1.35,1.17.71,2.48.55,3.86.34,1.26-.21,2.56-.15,3.8-.03.46.05.82.67,1.11,1.15-4.65-.04-8.7,2.18-13.01,3.26,2.84.27,5.96-1.33,8.47.59-.03.15-.05.29-.08.44-1.14-.12-2.27-.2-3.41-.33-1.28-.17-2.44-.11-3.79.44-2.44,1.03-4.85.44-7.24.09-1.79-.26-3.62-.42-5.3.76-.35.25-.5.78-.89,1.4-1.46-.03-3.31-.07-4.84,1.22,1.81.17,3.55.31,5.31.52,1.1.13,2.14.11,2.99-.77.66-.68,1.14-.51,1.64-.07.22.14.47.3.59.51.88,1.72,2.54,1.55,4.26,1.39,1.87-.17,3.77-.22,5.82-.33-.2.47-.31.68-.48,1.02,4.69-.62,9.17-.47,13.47,1.39-5.07,1.39-9.97-.82-14.82,1.62,2.43-.17,4.85-.35,7.28-.49,2.77-.18,5.23.37,7.11,2.22m-122.92,21.1c.37-.72.69-1.45.88-2.2.2-.82-.19.22-.88,2.2"/>
  </g>
</svg>