<svg width="114" height="40" viewBox="0 0 114 40" fill="none" xmlns="http://www.w3.org/2000/svg">
<g clip-path="url(#clip0_29795_150490)">
<path d="M40 0H0V40H40V0Z" fill="#00B259"/>
<path d="M26.625 28.275L24.5375 26.5625L23.75 25.8625C23.4174 25.5826 22.9973 25.4278 22.5625 25.425C22.0092 25.4487 21.484 25.6757 21.0875 26.0625C20.7485 26.3549 20.3115 26.5083 19.8641 26.4921C19.4167 26.4758 18.992 26.2912 18.675 25.975C17.5625 25.125 13.8125 21.35 13.5625 20.35C13.5037 20.1389 13.4922 19.9174 13.5289 19.7013C13.5657 19.4852 13.6497 19.2799 13.775 19.1C13.85 18.9875 13.9375 18.8875 14.0125 18.7875C14.2768 18.516 14.4551 18.1725 14.525 17.8C14.5374 17.4595 14.4743 17.1204 14.3403 16.8071C14.2064 16.4937 14.0048 16.2139 13.75 15.9875L12.5 14.275L12.2 13.875C12 13.6 11.8 13.325 11.575 13.0625C11.4017 12.873 11.1884 12.7242 10.9507 12.6269C10.7129 12.5297 10.4566 12.4863 10.2 12.5C9.6245 12.5047 9.0682 12.7078 8.62504 13.075C6.68754 14.725 7.67504 17.85 8.62504 20.05C9.70115 22.5626 11.2549 24.8423 13.2 26.7625C15.2843 28.912 17.7853 30.6134 20.55 31.7625C21.5688 32.183 22.65 32.4322 23.75 32.5C23.9329 32.5183 24.1172 32.5183 24.3 32.5C24.7581 32.5396 25.2192 32.4784 25.6511 32.3208C26.083 32.1631 26.4752 31.9129 26.8 31.5875C27.2154 31.1589 27.4637 30.5958 27.5 30C27.5207 29.6607 27.4505 29.322 27.2967 29.0188C27.1429 28.7156 26.911 28.4588 26.625 28.275Z" fill="white"/>
<path d="M26.875 8.75H20.625C19.4647 8.75 18.3519 9.21094 17.5314 10.0314C16.7109 10.8519 16.25 11.9647 16.25 13.125C16.25 14.2853 16.7109 15.3981 17.5314 16.2186C18.3519 17.0391 19.4647 17.5 20.625 17.5H21.25V19.3875C21.2482 19.5002 21.2775 19.6113 21.3348 19.7085C21.392 19.8056 21.475 19.885 21.5745 19.938C21.6741 19.991 21.7863 20.0155 21.8989 20.0088C22.0114 20.0021 22.12 19.9645 22.2125 19.9L25.8875 17.5H26.875C28.0353 17.5 29.1481 17.0391 29.9686 16.2186C30.7891 15.3981 31.25 14.2853 31.25 13.125C31.25 11.9647 30.7891 10.8519 29.9686 10.0314C29.1481 9.21094 28.0353 8.75 26.875 8.75Z" fill="white"/>
</g>
<g clip-path="url(#clip1_29795_150490)">
<path d="M57.7575 27.14H61.2675V15.395H57.7575V27.14ZM51.9075 22.01C51.9075 22.565 51.8587 23.015 51.7613 23.36C51.6638 23.705 51.495 23.9675 51.255 24.1475C51.015 24.3275 50.6775 24.4175 50.2425 24.4175C49.6275 24.4175 49.1813 24.2375 48.9037 23.8775C48.6263 23.5175 48.4875 22.94 48.4875 22.145H45V22.4825C45 23.5325 45.1987 24.4325 45.5962 25.1825C45.9937 25.9325 46.5862 26.5062 47.3737 26.9037C48.1613 27.3012 49.1325 27.5 50.2875 27.5C51.5475 27.5 52.5825 27.2937 53.3925 26.8812C54.2025 26.4687 54.8025 25.8537 55.1925 25.0362C55.5825 24.2187 55.7775 23.21 55.7775 22.01V11.5925H51.9075V22.01ZM60.5813 10.4675C60.2738 10.3025 59.925 10.22 59.535 10.22C59.115 10.22 58.7513 10.3025 58.4438 10.4675C58.1363 10.6325 57.8962 10.85 57.7238 11.12C57.5513 11.39 57.465 11.7125 57.465 12.0875C57.465 12.4625 57.5513 12.7887 57.7238 13.0662C57.8962 13.3437 58.1325 13.5687 58.4325 13.7412C58.7325 13.9137 59.0925 14 59.5125 14C59.9325 14 60.2775 13.9175 60.5925 13.7525C60.9075 13.5875 61.1438 13.3625 61.3013 13.0775C61.4587 12.7925 61.5375 12.47 61.5375 12.11C61.5375 11.75 61.455 11.4087 61.29 11.1312C61.125 10.8537 60.8888 10.6325 60.5813 10.4675ZM71.9775 15.89C71.0625 15.365 69.99 15.1025 68.76 15.1025C67.53 15.1025 66.48 15.3575 65.565 15.8675C64.65 16.3775 63.9525 17.1012 63.4725 18.0387C62.9925 18.9762 62.7525 20.0525 62.7525 21.2675C62.7525 22.4825 62.9925 23.5775 63.4725 24.5075C63.9525 25.4375 64.65 26.1612 65.565 26.6787C66.48 27.1962 67.5525 27.455 68.7825 27.455C70.0125 27.455 71.0775 27.1962 71.9775 26.6787C72.8775 26.1612 73.5713 25.4412 74.0588 24.5187C74.5462 23.5962 74.79 22.5125 74.79 21.2675C74.79 20.0225 74.55 18.9837 74.07 18.0612C73.59 17.1387 72.8925 16.415 71.9775 15.89ZM70.9762 23.1912C70.7887 23.7087 70.5075 24.11 70.1325 24.395C69.7575 24.68 69.3075 24.8225 68.7825 24.8225C68.2575 24.8225 67.8075 24.68 67.4325 24.395C67.0575 24.11 66.7725 23.705 66.5775 23.18C66.3825 22.655 66.285 22.025 66.285 21.29C66.285 20.555 66.3825 19.8762 66.5775 19.3437C66.7725 18.8112 67.0575 18.4062 67.4325 18.1287C67.8075 17.8512 68.25 17.7125 68.76 17.7125C69.33 17.7125 69.7987 17.8625 70.1663 18.1625C70.5338 18.4625 70.8075 18.8787 70.9875 19.4112C71.1675 19.9437 71.2575 20.57 71.2575 21.29C71.2575 22.01 71.1637 22.6737 70.9762 23.1912ZM104.399 27.14H107.909V11.075H104.399V27.14ZM86.3988 23.1237C86.1138 23.5212 85.7537 23.8212 85.3187 24.0237C84.8837 24.2262 84.3737 24.3275 83.7887 24.3275C82.9338 24.3275 82.2212 24.1137 81.6512 23.6862C81.0812 23.2587 80.6575 22.67 80.38 21.92C80.1025 21.17 79.9637 20.315 79.9637 19.355C79.9637 18.395 80.1025 17.48 80.38 16.745C80.6575 16.01 81.0812 15.4362 81.6512 15.0237C82.2212 14.6112 82.9338 14.405 83.7887 14.405C84.3138 14.405 84.7863 14.4875 85.2062 14.6525C85.6262 14.8175 85.9825 15.0612 86.275 15.3837C86.5675 15.7062 86.7588 16.0775 86.8488 16.4975H90.6287C90.4787 15.3725 90.0963 14.4125 89.4813 13.6175C88.8662 12.8225 88.0788 12.2262 87.1188 11.8287C86.1588 11.4312 85.0562 11.2325 83.8112 11.2325C82.2212 11.2325 80.8375 11.5812 79.66 12.2787C78.4825 12.9762 77.5825 13.94 76.96 15.17C76.3375 16.4 76.0263 17.795 76.0263 19.355C76.0263 20.915 76.3337 22.3325 76.9487 23.5625C77.5638 24.7925 78.4525 25.7562 79.615 26.4537C80.7775 27.1512 82.1688 27.5 83.7887 27.5C85.0788 27.5 86.2375 27.26 87.265 26.78C88.2925 26.3 89.1137 25.6175 89.7287 24.7325C90.3438 23.8475 90.6887 22.835 90.7637 21.695H86.9162C86.8562 22.25 86.6838 22.7262 86.3988 23.1237ZM109.91 11.075V27.14H113.42V11.075H109.91ZM100.336 15.5862C99.5638 15.2487 98.5775 15.08 97.3775 15.08C96.1775 15.08 95.2663 15.2112 94.5088 15.4737C93.7513 15.7362 93.1662 16.1262 92.7537 16.6437C92.3413 17.1612 92.075 17.7875 91.955 18.5225H95.3075C95.3975 18.1325 95.5963 17.8325 95.9038 17.6225C96.2113 17.4125 96.6575 17.3075 97.2425 17.3075C97.7225 17.3075 98.105 17.3862 98.39 17.5437C98.675 17.7012 98.8775 17.9375 98.9975 18.2525C99.1175 18.5675 99.1775 18.965 99.1775 19.445V19.985H97.2875C96.0425 19.985 94.9888 20.1237 94.1263 20.4012C93.2638 20.6787 92.6075 21.0912 92.1575 21.6387C91.7075 22.1862 91.4825 22.895 91.4825 23.765C91.4825 24.53 91.6475 25.19 91.9775 25.745C92.3075 26.3 92.7763 26.7237 93.3838 27.0162C93.9912 27.3087 94.7075 27.455 95.5325 27.455C96.1475 27.455 96.6987 27.3762 97.1862 27.2187C97.6737 27.0612 98.0713 26.855 98.3787 26.6C98.6862 26.345 98.9525 26.045 99.1775 25.7H99.29L99.4475 27.14H102.575V19.7375C102.575 18.6875 102.395 17.8175 102.035 17.1275C101.675 16.4375 101.109 15.9237 100.336 15.5862ZM99.1775 22.6625C99.1775 23.1725 99.0725 23.615 98.8625 23.99C98.6525 24.365 98.3787 24.6462 98.0412 24.8337C97.7037 25.0212 97.3025 25.115 96.8375 25.115C96.4775 25.115 96.17 25.055 95.915 24.935C95.66 24.815 95.4538 24.6387 95.2962 24.4062C95.1387 24.1737 95.06 23.8775 95.06 23.5175C95.06 23.0975 95.1725 22.7637 95.3975 22.5162C95.6225 22.2687 95.945 22.0887 96.365 21.9762C96.785 21.8637 97.2875 21.8075 97.8725 21.8075H99.1775V22.6625Z" fill="white"/>
</g>
<defs>
<clipPath id="clip0_29795_150490">
<rect width="40" height="40" rx="20" fill="white"/>
</clipPath>
<clipPath id="clip1_29795_150490">
<rect width="68.4212" height="30" fill="white" transform="translate(45 5)"/>
</clipPath>
</defs>
</svg>
